<?xml version="1.0" encoding="UTF-8" standalone="no"?>
<svg
   version="1.0"
   width="323.56mm"
   height="38.349998mm"
   id="svg278"
   sodipodi:docname="a02HabilTheory-img006.svg"
   inkscape:version="1.2.2 (b0a8486, 2022-12-01)"
   xmlns:inkscape="http://www.inkscape.org/namespaces/inkscape"
   xmlns:sodipodi="http://sodipodi.sourceforge.net/DTD/sodipodi-0.dtd"
   xmlns="http://www.w3.org/2000/svg"
   xmlns:svg="http://www.w3.org/2000/svg">
  <sodipodi:namedview
     id="namedview280"
     pagecolor="#ffffff"
     bordercolor="#666666"
     borderopacity="1.0"
     inkscape:showpageshadow="2"
     inkscape:pageopacity="0.0"
     inkscape:pagecheckerboard="0"
     inkscape:deskcolor="#d1d1d1"
     inkscape:document-units="mm"
     showgrid="false"
     inkscape:zoom="0.96491635"
     inkscape:cx="-462.21623"
     inkscape:cy="16.581748"
     inkscape:window-width="1280"
     inkscape:window-height="458"
     inkscape:window-x="0"
     inkscape:window-y="25"
     inkscape:window-maximized="0"
     inkscape:current-layer="svg278" />
  <defs
     id="defs36">
    <clipPath
       clipPathUnits="userSpaceOnUse"
       id="clipEmfPath1">
      <path
         d="  M 0,0   L 0,0   L 0,146.70177   L 1224.647,146.70177   L 1224.647,0 "
         id="path2" />
    </clipPath>
    <clipPath
       clipPathUnits="userSpaceOnUse"
       id="clipEmfPath2">
      <path
         d="  M 0,1.2000145   L 0,1.2000145   L 0,101.50123   L 950.93653,101.50123   L 950.93653,1.2000145 "
         id="path5" />
    </clipPath>
    <clipPath
       clipPathUnits="userSpaceOnUse"
       id="clipEmfPath3">
      <path
         d="  M 0,1.2000145   L 0,1.2000145   L 0,101.50123   L 112.10431,101.50123   L 112.10431,1.2000145 "
         id="path8" />
    </clipPath>
    <clipPath
       clipPathUnits="userSpaceOnUse"
       id="clipEmfPath4">
      <path
         d="  M 123.60475,1.2000145   L 123.60475,1.2000145   L 123.60475,101.50123   L 248.00953,101.50123   L 248.00953,1.2000145 "
         id="path11" />
    </clipPath>
    <clipPath
       clipPathUnits="userSpaceOnUse"
       id="clipEmfPath5">
      <path
         d="  M 259.50997,1.2000145   L 259.50997,1.2000145   L 259.50997,101.50123   L 387.01487,101.50123   L 387.01487,1.2000145 "
         id="path14" />
    </clipPath>
    <clipPath
       clipPathUnits="userSpaceOnUse"
       id="clipEmfPath6">
      <path
         d="  M 535.32057,1.2000145   L 535.32057,1.2000145   L 535.32057,101.50123   L 657.72527,101.50123   L 657.72527,1.2000145 "
         id="path17" />
    </clipPath>
    <clipPath
       clipPathUnits="userSpaceOnUse"
       id="clipEmfPath7">
      <path
         d="  M 656.92524,1.2000145   L 656.92524,1.2000145   L 656.92524,101.50123   L 806.931,101.50123   L 806.931,1.2000145 "
         id="path20" />
    </clipPath>
    <clipPath
       clipPathUnits="userSpaceOnUse"
       id="clipEmfPath8">
      <path
         d="  M 398.41531,1.2000145   L 398.41531,1.2000145   L 398.41531,101.50123   L 524.92017,101.50123   L 524.92017,1.2000145 "
         id="path23" />
    </clipPath>
    <clipPath
       clipPathUnits="userSpaceOnUse"
       id="clipEmfPath9">
      <path
         d="  M 801.03077,1.2000145   L 801.03077,1.2000145   L 801.03077,101.50123   L 950.93653,101.50123   L 950.93653,1.2000145 "
         id="path26" />
    </clipPath>
    <clipPath
       clipPathUnits="userSpaceOnUse"
       id="clipEmfPath10">
      <path
         d="  M 950.1365,0   L 950.1365,0   L 950.1365,95.401152   L 1084.8417,95.401152   L 1084.8417,0 "
         id="path29" />
    </clipPath>
    <clipPath
       clipPathUnits="userSpaceOnUse"
       id="clipEmfPath11">
      <path
         d="  M 1094.242,0   L 1094.242,0   L 1094.242,94.301139   L 1224.647,94.301139   L 1224.647,0 "
         id="path32" />
    </clipPath>
    <pattern
       id="EMFhbasepattern"
       patternUnits="userSpaceOnUse"
       width="6"
       height="6"
       x="0"
       y="0" />
  </defs>
  <path
     style="fill:#d6dce5;fill-rule:nonzero;fill-opacity:1;stroke:none;"
     clip-path="url(#clipEmfPath3)"
     d="  M 30.70118,2.1000254   L 30.70118,2.1000254   L 80.603097,2.1000254   L 80.603097,94.501141   L 30.70118,94.501141   L 30.70118,2.1000254   z "
     id="path38" />
  <path
     style="fill:none;stroke:#000000;stroke-width:1.6000614px;stroke-linecap:butt;stroke-linejoin:miter;stroke-miterlimit:8;stroke-dasharray:none;stroke-opacity:1;"
     clip-path="url(#clipEmfPath3)"
     d="  M 30.70118,2.1000254   L 30.70118,2.1000254   L 80.603097,2.1000254   L 80.603097,94.501141   L 30.70118,94.501141   L 30.70118,2.1000254   z "
     id="path40" />
  <path
     style="fill:none;stroke:#000000;stroke-width:1.6000614px;stroke-linecap:butt;stroke-linejoin:miter;stroke-miterlimit:8;stroke-dasharray:none;stroke-opacity:1;"
     clip-path="url(#clipEmfPath3)"
     d="  M 80.603097,2.1000254   L 80.603097,2.1000254   L 110.50425,2.1000254   L 110.50425,94.501141   L 80.603097,94.501141   L 80.603097,2.1000254   z "
     id="path42" />
  <path
     style="fill:none;stroke:#000000;stroke-width:1.6000614px;stroke-linecap:butt;stroke-linejoin:miter;stroke-miterlimit:8;stroke-dasharray:none;stroke-opacity:1;"
     clip-path="url(#clipEmfPath3)"
     d="  M 0.80003074,2.1000254   L 0.80003074,2.1000254   L 30.70118,2.1000254   L 30.70118,94.501141   L 0.80003074,94.501141   L 0.80003074,2.1000254   z "
     id="path44" />
  <path
     style="fill:#0432ff;fill-rule:nonzero;fill-opacity:1;stroke:none;"
     clip-path="url(#clipEmfPath3)"
     d="  M 42.201621,104.00126   L 42.201621,104.00126   L 42.201621,121.00146   L 45.80176,121.00146   L 45.80176,113.50137   L 52.502017,113.50137   L 52.502017,121.00146   L 56.102155,121.00146   L 56.102155,104.00126   L 52.502017,104.00126   L 52.502017,110.80134   L 45.80176,110.80134   L 45.80176,104.00126   L 42.201621,104.00126   z "
     id="path46" />
  <path
     style="fill:#0432ff;fill-rule:nonzero;fill-opacity:1;stroke:none;"
     clip-path="url(#clipEmfPath3)"
     d="  M 69.302663,110.20133   L 69.302663,110.20133   L 66.002536,108.90132   L 69.302663,107.5013   L 67.902609,105.10127   L 65.302509,107.4013   L 65.60252,104.00126   L 63.00242,104.00126   L 63.50244,107.3013   L 60.702332,105.10127   L 59.402282,107.5013   L 62.602405,108.90132   L 59.402282,110.20133   L 60.702332,112.60136   L 63.302432,110.30133   L 63.00242,113.70137   L 65.60252,113.70137   L 65.302509,110.30133   L 67.902609,112.60136   L 69.302663,110.20133   z "
     id="path48" />
  <path
     style="fill:none;stroke:#000000;stroke-width:4.1001577px;stroke-linecap:round;stroke-linejoin:miter;stroke-miterlimit:8;stroke-dasharray:none;stroke-opacity:1;"
     clip-path="url(#clipEmfPath3)"
     d="  M 32.80126,24.300294   L 32.80126,24.300294   L 79.90307,24.300294  "
     id="path50" />
  <path
     style="fill:#d6dce5;fill-rule:nonzero;fill-opacity:1;stroke:none;"
     clip-path="url(#clipEmfPath4)"
     d="  M 161.5062,2.1000254   L 161.5062,2.1000254   L 210.9081,2.1000254   L 210.9081,94.501141   L 161.5062,94.501141   L 161.5062,2.1000254   z "
     id="path52" />
  <path
     style="fill:none;stroke:#000000;stroke-width:1.6000614px;stroke-linecap:butt;stroke-linejoin:miter;stroke-miterlimit:8;stroke-dasharray:none;stroke-opacity:1;"
     clip-path="url(#clipEmfPath4)"
     d="  M 161.5062,2.1000254   L 161.5062,2.1000254   L 210.9081,2.1000254   L 210.9081,94.501141   L 161.5062,94.501141   L 161.5062,2.1000254   z "
     id="path54" />
  <path
     style="fill:none;stroke:#000000;stroke-width:1.6000614px;stroke-linecap:butt;stroke-linejoin:miter;stroke-miterlimit:8;stroke-dasharray:none;stroke-opacity:1;"
     clip-path="url(#clipEmfPath4)"
     d="  M 210.9081,2.1000254   L 210.9081,2.1000254   L 246.40947,2.1000254   L 246.40947,94.501141   L 210.9081,94.501141   L 210.9081,2.1000254   z "
     id="path56" />
  <path
     style="fill:none;stroke:#000000;stroke-width:1.6000614px;stroke-linecap:butt;stroke-linejoin:miter;stroke-miterlimit:8;stroke-dasharray:none;stroke-opacity:1;"
     clip-path="url(#clipEmfPath4)"
     d="  M 124.40478,2.1000254   L 124.40478,2.1000254   L 161.5062,2.1000254   L 161.5062,94.501141   L 124.40478,94.501141   L 124.40478,2.1000254   z "
     id="path58" />
  <path
     style="fill:#0432ff;fill-rule:nonzero;fill-opacity:1;stroke:none;"
     clip-path="url(#clipEmfPath4)"
     d="  M 175.80675,120.90146   L 175.80675,120.90146   L 185.80714,120.90146   L 185.80714,118.10143   L 179.40689,118.10143   L 179.40689,104.00126   L 175.80675,104.00126   L 175.80675,120.90146   z "
     id="path60" />
  <path
     style="fill:#0432ff;fill-rule:nonzero;fill-opacity:1;stroke:none;"
     clip-path="url(#clipEmfPath4)"
     d="  M 195.00749,110.10133   L 195.00749,110.10133   L 191.80737,108.90132   L 195.00749,107.5013   L 193.70744,105.00127   L 191.10734,107.4013   L 191.40735,104.00126   L 188.80725,104.00126   L 189.30727,107.3013   L 186.50717,105.00127   L 185.20712,107.5013   L 188.40724,108.90132   L 185.20712,110.10133   L 186.50717,112.60136   L 189.10727,110.30133   L 188.80725,113.70137   L 191.40735,113.70137   L 191.10734,110.30133   L 193.70744,112.60136   L 195.00749,110.10133   z "
     id="path62" />
  <path
     style="fill:none;stroke:#000000;stroke-width:4.1001577px;stroke-linecap:round;stroke-linejoin:miter;stroke-miterlimit:8;stroke-dasharray:none;stroke-opacity:1;"
     clip-path="url(#clipEmfPath4)"
     d="  M 163.50628,69.700842   L 163.50628,69.700842   L 210.30808,69.700842  "
     id="path64" />
  <path
     style="fill:#0432ff;fill-rule:nonzero;fill-opacity:1;stroke:none;"
     clip-path="url(#clipEmfPath5)"
     d="  M 297.91145,120.90146   L 297.91145,120.90146   L 307.91183,120.90146   L 307.91183,118.00143   L 301.51158,118.00143   L 301.51158,103.90125   L 297.91145,103.90125   L 297.91145,120.90146   z "
     id="path66" />
  <path
     style="fill:#0432ff;fill-rule:nonzero;fill-opacity:1;stroke:none;"
     clip-path="url(#clipEmfPath5)"
     d="  M 317.11218,110.10133   L 317.11218,110.10133   L 313.91206,108.90132   L 317.11218,107.5013   L 315.81213,105.00127   L 313.21203,107.3013   L 313.51204,103.90125   L 310.91194,103.90125   L 311.41196,107.3013   L 308.61186,105.00127   L 307.31181,107.5013   L 310.61193,108.90132   L 307.31181,110.10133   L 308.61186,112.60136   L 311.21196,110.20133   L 310.91194,113.60137   L 313.51204,113.60137   L 313.21203,110.20133   L 315.81213,112.60136   L 317.11218,110.10133   z "
     id="path68" />
  <path
     style="fill:#0432ff;fill-rule:nonzero;fill-opacity:1;stroke:none;"
     clip-path="url(#clipEmfPath5)"
     d="  M 323.61243,120.90146   L 323.61243,120.90146   L 326.61255,120.90146   L 326.61255,116.1014   L 331.31273,116.1014   L 331.31273,113.20137   L 326.61255,113.20137   L 326.61255,108.40131   L 323.61243,108.40131   L 323.61243,113.20137   L 318.91225,113.20137   L 318.91225,116.1014   L 323.61243,116.1014   L 323.61243,120.90146   z "
     id="path70" />
  <path
     style="fill:#0432ff;fill-rule:nonzero;fill-opacity:1;stroke:none;"
     clip-path="url(#clipEmfPath5)"
     d="  M 333.31281,103.90125   L 333.31281,103.90125   L 333.31281,120.90146   L 336.81294,120.90146   L 336.81294,113.50137   L 343.5132,113.50137   L 343.5132,120.90146   L 347.11334,120.90146   L 347.11334,103.90125   L 343.5132,103.90125   L 343.5132,110.70134   L 336.81294,110.70134   L 336.81294,103.90125   L 333.31281,103.90125   z "
     id="path72" />
  <path
     style="fill:#d6dce5;fill-rule:nonzero;fill-opacity:1;stroke:none;"
     clip-path="url(#clipEmfPath5)"
     d="  M 297.61143,2.1000254   L 297.61143,2.1000254   L 347.21334,2.1000254   L 347.21334,94.501141   L 297.61143,94.501141   L 297.61143,2.1000254   z "
     id="path74" />
  <path
     style="fill:none;stroke:#000000;stroke-width:1.6000614px;stroke-linecap:butt;stroke-linejoin:miter;stroke-miterlimit:8;stroke-dasharray:none;stroke-opacity:1;"
     clip-path="url(#clipEmfPath5)"
     d="  M 297.61143,2.1000254   L 297.61143,2.1000254   L 347.21334,2.1000254   L 347.21334,94.501141   L 297.61143,94.501141   L 297.61143,2.1000254   z "
     id="path76" />
  <path
     style="fill:none;stroke:#000000;stroke-width:1.6000614px;stroke-linecap:butt;stroke-linejoin:miter;stroke-miterlimit:8;stroke-dasharray:none;stroke-opacity:1;"
     clip-path="url(#clipEmfPath5)"
     d="  M 347.21334,2.1000254   L 347.21334,2.1000254   L 384.51477,2.1000254   L 384.51477,94.501141   L 347.21334,94.501141   L 347.21334,2.1000254   z "
     id="path78" />
  <path
     style="fill:none;stroke:#000000;stroke-width:1.6000614px;stroke-linecap:butt;stroke-linejoin:miter;stroke-miterlimit:8;stroke-dasharray:none;stroke-opacity:1;"
     clip-path="url(#clipEmfPath5)"
     d="  M 260.31,2.1000254   L 260.31,2.1000254   L 298.41146,2.1000254   L 298.41146,94.501141   L 260.31,94.501141   L 260.31,2.1000254   z "
     id="path80" />
  <path
     style="fill:none;stroke:#000000;stroke-width:4.1001577px;stroke-linecap:round;stroke-linejoin:miter;stroke-miterlimit:8;stroke-dasharray:none;stroke-opacity:1;"
     clip-path="url(#clipEmfPath5)"
     d="  M 332.71278,78.000942   L 332.71278,78.000942   L 383.91475,32.800396  "
     id="path82" />
  <path
     style="fill:none;stroke:#000000;stroke-width:4.1001577px;stroke-linecap:round;stroke-linejoin:miter;stroke-miterlimit:8;stroke-dasharray:none;stroke-opacity:1;"
     clip-path="url(#clipEmfPath5)"
     d="  M 261.51005,78.100943   L 261.51005,78.100943   L 331.91275,78.100943  "
     id="path84" />
  <path
     style="fill:#0432ff;fill-rule:nonzero;fill-opacity:1;stroke:none;"
     clip-path="url(#clipEmfPath6)"
     d="  M 563.62165,121.10146   L 563.62165,121.10146   L 573.62204,121.10146   L 573.62204,118.20143   L 567.22179,118.20143   L 567.22179,104.30126   L 563.62165,104.30126   L 563.62165,121.10146   z "
     id="path86" />
  <path
     style="fill:#0432ff;fill-rule:nonzero;fill-opacity:1;stroke:none;"
     clip-path="url(#clipEmfPath6)"
     d="  M 579.32226,121.10146   L 579.32226,121.10146   L 582.42238,121.10146   L 582.42238,116.40141   L 587.02255,116.40141   L 587.02255,113.40137   L 582.42238,113.40137   L 582.42238,108.70131   L 579.32226,108.70131   L 579.32226,113.40137   L 574.72208,113.40137   L 574.72208,116.40141   L 579.32226,116.40141   L 579.32226,121.10146   z "
     id="path88" />
  <path
     style="fill:#0432ff;fill-rule:nonzero;fill-opacity:1;stroke:none;"
     clip-path="url(#clipEmfPath6)"
     d="  M 587.92259,116.2014   L 587.92259,116.2014   L 600.22306,121.10146   L 600.22306,117.90142   L 591.82274,115.00139   L 591.82274,114.80139   L 600.22306,111.90135   L 600.22306,108.80131   L 587.92259,113.60137   L 587.92259,116.2014   z "
     id="path90" />
  <path
     style="fill:#0432ff;fill-rule:nonzero;fill-opacity:1;stroke:none;"
     clip-path="url(#clipEmfPath6)"
     d="  M 602.32314,104.30126   L 602.32314,104.30126   L 602.32314,121.10146   L 605.82328,121.10146   L 605.82328,113.70137   L 612.42353,113.70137   L 612.42353,121.10146   L 616.12367,121.10146   L 616.12367,104.30126   L 612.42353,104.30126   L 612.42353,111.00134   L 605.82328,111.00134   L 605.82328,104.30126   L 602.32314,104.30126   z "
     id="path92" />
  <path
     style="fill:#0432ff;fill-rule:nonzero;fill-opacity:1;stroke:none;"
     clip-path="url(#clipEmfPath6)"
     d="  M 629.12417,110.40133   L 629.12417,110.40133   L 625.92405,109.20132   L 629.12417,107.8013   L 627.82412,105.30127   L 625.22402,107.6013   L 625.52403,104.30126   L 622.92393,104.30126   L 623.42395,107.5013   L 620.62384,105.30127   L 619.32379,107.8013   L 622.62392,109.20132   L 619.32379,110.40133   L 620.62384,112.80136   L 623.32395,110.50133   L 622.92393,113.90138   L 625.52403,113.90138   L 625.22402,110.50133   L 627.82412,112.80136   L 629.12417,110.40133   z "
     id="path94" />
  <path
     style="fill:#d6dce5;fill-rule:nonzero;fill-opacity:1;stroke:none;"
     clip-path="url(#clipEmfPath6)"
     d="  M 572.522,2.1000254   L 572.522,2.1000254   L 621.32387,2.1000254   L 621.32387,94.001135   L 572.522,94.001135   L 572.522,2.1000254   z "
     id="path96" />
  <path
     style="fill:none;stroke:#000000;stroke-width:1.6000614px;stroke-linecap:butt;stroke-linejoin:miter;stroke-miterlimit:8;stroke-dasharray:none;stroke-opacity:1;"
     clip-path="url(#clipEmfPath6)"
     d="  M 572.522,2.1000254   L 572.522,2.1000254   L 621.32387,2.1000254   L 621.32387,94.001135   L 572.522,94.001135   L 572.522,2.1000254   z "
     id="path98" />
  <path
     style="fill:none;stroke:#000000;stroke-width:1.6000614px;stroke-linecap:butt;stroke-linejoin:miter;stroke-miterlimit:8;stroke-dasharray:none;stroke-opacity:1;"
     clip-path="url(#clipEmfPath6)"
     d="  M 621.32387,2.1000254   L 621.32387,2.1000254   L 656.12521,2.1000254   L 656.12521,94.001135   L 621.32387,94.001135   L 621.32387,2.1000254   z "
     id="path100" />
  <path
     style="fill:none;stroke:#000000;stroke-width:1.6000614px;stroke-linecap:butt;stroke-linejoin:miter;stroke-miterlimit:8;stroke-dasharray:none;stroke-opacity:1;"
     clip-path="url(#clipEmfPath6)"
     d="  M 536.1206,2.1000254   L 536.1206,2.1000254   L 572.522,2.1000254   L 572.522,94.001135   L 536.1206,94.001135   L 536.1206,2.1000254   z "
     id="path102" />
  <path
     style="fill:none;stroke:#000000;stroke-width:4.1001577px;stroke-linecap:round;stroke-linejoin:miter;stroke-miterlimit:8;stroke-dasharray:none;stroke-opacity:1;"
     clip-path="url(#clipEmfPath6)"
     d="  M 573.82205,78.000942   L 573.82205,78.000942   L 654.62515,24.200292  "
     id="path104" />
  <path
     style="fill:none;stroke:#000000;stroke-width:4.1001577px;stroke-linecap:round;stroke-linejoin:miter;stroke-miterlimit:8;stroke-dasharray:none;stroke-opacity:1;"
     clip-path="url(#clipEmfPath6)"
     d="  M 538.22068,78.500948   L 538.22068,78.500948   L 573.42203,78.500948  "
     id="path106" />
  <path
     style="fill:#d6dce5;fill-rule:nonzero;fill-opacity:1;stroke:none;"
     clip-path="url(#clipEmfPath7)"
     d="  M 708.32721,2.1000254   L 708.32721,2.1000254   L 757.22909,2.1000254   L 757.22909,95.101149   L 708.32721,95.101149   L 708.32721,2.1000254   z "
     id="path108" />
  <path
     style="fill:none;stroke:#000000;stroke-width:1.6000614px;stroke-linecap:butt;stroke-linejoin:miter;stroke-miterlimit:8;stroke-dasharray:none;stroke-opacity:1;"
     clip-path="url(#clipEmfPath7)"
     d="  M 708.32721,2.1000254   L 708.32721,2.1000254   L 757.22909,2.1000254   L 757.22909,95.101149   L 708.32721,95.101149   L 708.32721,2.1000254   z "
     id="path110" />
  <path
     style="fill:none;stroke:#000000;stroke-width:1.6000614px;stroke-linecap:butt;stroke-linejoin:miter;stroke-miterlimit:8;stroke-dasharray:none;stroke-opacity:1;"
     clip-path="url(#clipEmfPath7)"
     d="  M 757.22909,2.1000254   L 757.22909,2.1000254   L 797.03062,2.1000254   L 797.03062,95.101149   L 757.22909,95.101149   L 757.22909,2.1000254   z "
     id="path112" />
  <path
     style="fill:none;stroke:#000000;stroke-width:1.6000614px;stroke-linecap:butt;stroke-linejoin:miter;stroke-miterlimit:8;stroke-dasharray:none;stroke-opacity:1;"
     clip-path="url(#clipEmfPath7)"
     d="  M 668.52568,2.1000254   L 668.52568,2.1000254   L 708.32721,2.1000254   L 708.32721,95.101149   L 668.52568,95.101149   L 668.52568,2.1000254   z "
     id="path114" />
  <path
     style="fill:#0432ff;fill-rule:nonzero;fill-opacity:1;stroke:none;"
     clip-path="url(#clipEmfPath7)"
     d="  M 706.52714,104.10126   L 706.52714,104.10126   L 706.52714,121.20146   L 710.12728,121.20146   L 710.12728,113.70137   L 716.72754,113.70137   L 716.72754,121.20146   L 720.42768,121.20146   L 720.42768,104.10126   L 716.72754,104.10126   L 716.72754,111.00134   L 710.12728,111.00134   L 710.12728,104.10126   L 706.52714,104.10126   z "
     id="path116" />
  <path
     style="fill:#0432ff;fill-rule:nonzero;fill-opacity:1;stroke:none;"
     clip-path="url(#clipEmfPath7)"
     d="  M 727.52795,121.20146   L 727.52795,121.20146   L 730.52807,121.20146   L 730.52807,116.40141   L 735.22825,116.40141   L 735.22825,113.40137   L 730.52807,113.40137   L 730.52807,108.60131   L 727.52795,108.60131   L 727.52795,113.40137   L 722.92777,113.40137   L 722.92777,116.40141   L 727.52795,116.40141   L 727.52795,121.20146   z "
     id="path118" />
  <path
     style="fill:#0432ff;fill-rule:nonzero;fill-opacity:1;stroke:none;"
     clip-path="url(#clipEmfPath7)"
     d="  M 737.42833,121.20146   L 737.42833,121.20146   L 747.42872,121.20146   L 747.42872,118.30143   L 741.02847,118.30143   L 741.02847,104.10126   L 737.42833,104.10126   L 737.42833,121.20146   z "
     id="path120" />
  <path
     style="fill:#0432ff;fill-rule:nonzero;fill-opacity:1;stroke:none;"
     clip-path="url(#clipEmfPath7)"
     d="  M 756.72907,110.40133   L 756.72907,110.40133   L 753.42895,109.10132   L 756.72907,107.7013   L 755.42902,105.20127   L 752.72892,107.6013   L 753.02893,104.10126   L 750.52883,104.10126   L 750.92885,107.5013   L 748.12874,105.20127   L 746.82869,107.7013   L 750.12882,109.10132   L 746.82869,110.40133   L 748.12874,112.80136   L 750.82885,110.50133   L 750.52883,113.90138   L 753.02893,113.90138   L 752.72892,110.50133   L 755.42902,112.80136   L 756.72907,110.40133   z "
     id="path122" />
  <path
     style="fill:none;stroke:#000000;stroke-width:4.1001577px;stroke-linecap:round;stroke-linejoin:miter;stroke-miterlimit:8;stroke-dasharray:none;stroke-opacity:1;"
     clip-path="url(#clipEmfPath7)"
     d="  M 669.72573,34.600418   L 669.72573,34.600418   L 713.02739,34.600418  "
     id="path124" />
  <path
     style="fill:none;stroke:#000000;stroke-width:4.1001577px;stroke-linecap:round;stroke-linejoin:miter;stroke-miterlimit:8;stroke-dasharray:none;stroke-opacity:1;"
     clip-path="url(#clipEmfPath7)"
     d="  M 713.72742,34.600418   L 713.72742,34.600418   L 757.12909,77.300934  "
     id="path126" />
  <path
     style="fill:#0432ff;fill-rule:nonzero;fill-opacity:1;stroke:none;"
     clip-path="url(#clipEmfPath8)"
     d="  M 435.51673,120.70146   L 435.51673,120.70146   L 445.41711,120.70146   L 445.41711,117.90142   L 439.11687,117.90142   L 439.11687,103.90125   L 435.51673,103.90125   L 435.51673,120.70146   z "
     id="path128" />
  <path
     style="fill:#0432ff;fill-rule:nonzero;fill-opacity:1;stroke:none;"
     clip-path="url(#clipEmfPath8)"
     d="  M 451.01733,120.70146   L 451.01733,120.70146   L 454.01744,120.70146   L 454.01744,116.0014   L 458.61762,116.0014   L 458.61762,113.10137   L 454.01744,113.10137   L 454.01744,108.30131   L 451.01733,108.30131   L 451.01733,113.10137   L 446.41715,113.10137   L 446.41715,116.0014   L 451.01733,116.0014   L 451.01733,120.70146   z "
     id="path130" />
  <path
     style="fill:#0432ff;fill-rule:nonzero;fill-opacity:1;stroke:none;"
     clip-path="url(#clipEmfPath8)"
     d="  M 460.8177,103.90125   L 460.8177,103.90125   L 460.8177,120.70146   L 464.41784,120.70146   L 464.41784,113.30137   L 470.91809,113.30137   L 470.91809,120.70146   L 474.51823,120.70146   L 474.51823,103.90125   L 470.91809,103.90125   L 470.91809,110.60134   L 464.41784,110.60134   L 464.41784,103.90125   L 460.8177,103.90125   z "
     id="path132" />
  <path
     style="fill:#0432ff;fill-rule:nonzero;fill-opacity:1;stroke:none;"
     clip-path="url(#clipEmfPath8)"
     d="  M 487.31872,110.00133   L 487.31872,110.00133   L 484.1186,108.80131   L 487.31872,107.4013   L 486.01867,104.90127   L 483.41857,107.3013   L 483.71858,103.90125   L 481.21849,103.90125   L 481.6185,107.20129   L 478.9184,104.90127   L 477.61835,107.4013   L 480.81847,108.80131   L 477.61835,110.00133   L 478.9184,112.40136   L 481.5185,110.10133   L 481.21849,113.50137   L 483.71858,113.50137   L 483.41857,110.10133   L 486.01867,112.40136   L 487.31872,110.00133   z "
     id="path134" />
  <path
     style="fill:#d6dce5;fill-rule:nonzero;fill-opacity:1;stroke:none;"
     clip-path="url(#clipEmfPath8)"
     d="  M 437.01679,2.1000254   L 437.01679,2.1000254   L 486.31868,2.1000254   L 486.31868,94.001135   L 437.01679,94.001135   L 437.01679,2.1000254   z "
     id="path136" />
  <path
     style="fill:none;stroke:#000000;stroke-width:1.6000614px;stroke-linecap:butt;stroke-linejoin:miter;stroke-miterlimit:8;stroke-dasharray:none;stroke-opacity:1;"
     clip-path="url(#clipEmfPath8)"
     d="  M 437.01679,2.1000254   L 437.01679,2.1000254   L 486.31868,2.1000254   L 486.31868,94.001135   L 437.01679,94.001135   L 437.01679,2.1000254   z "
     id="path138" />
  <path
     style="fill:none;stroke:#000000;stroke-width:1.6000614px;stroke-linecap:butt;stroke-linejoin:miter;stroke-miterlimit:8;stroke-dasharray:none;stroke-opacity:1;"
     clip-path="url(#clipEmfPath8)"
     d="  M 486.31868,2.1000254   L 486.31868,2.1000254   L 522.42007,2.1000254   L 522.42007,94.001135   L 486.31868,94.001135   L 486.31868,2.1000254   z "
     id="path140" />
  <path
     style="fill:none;stroke:#000000;stroke-width:1.6000614px;stroke-linecap:butt;stroke-linejoin:miter;stroke-miterlimit:8;stroke-dasharray:none;stroke-opacity:1;"
     clip-path="url(#clipEmfPath8)"
     d="  M 399.21534,2.1000254   L 399.21534,2.1000254   L 437.01679,2.1000254   L 437.01679,94.001135   L 399.21534,94.001135   L 399.21534,2.1000254   z "
     id="path142" />
  <path
     style="fill:none;stroke:#000000;stroke-width:4.1001577px;stroke-linecap:round;stroke-linejoin:miter;stroke-miterlimit:8;stroke-dasharray:none;stroke-opacity:1;"
     clip-path="url(#clipEmfPath8)"
     d="  M 437.41681,78.000942   L 437.41681,78.000942   L 485.61866,31.700383  "
     id="path144" />
  <path
     style="fill:none;stroke:#000000;stroke-width:4.1001577px;stroke-linecap:round;stroke-linejoin:miter;stroke-miterlimit:8;stroke-dasharray:none;stroke-opacity:1;"
     clip-path="url(#clipEmfPath8)"
     d="  M 486.7187,31.700383   L 486.7187,31.700383   L 521.62004,78.000942  "
     id="path146" />
  <path
     style="fill:none;stroke:#000000;stroke-width:4.1001577px;stroke-linecap:round;stroke-linejoin:miter;stroke-miterlimit:8;stroke-dasharray:none;stroke-opacity:1;"
     clip-path="url(#clipEmfPath8)"
     d="  M 400.51539,77.700939   L 400.51539,77.700939   L 436.61677,77.700939  "
     id="path148" />
  <path
     style="fill:#d6dce5;fill-rule:nonzero;fill-opacity:1;stroke:none;"
     clip-path="url(#clipEmfPath9)"
     d="  M 852.33275,2.1000254   L 852.33275,2.1000254   L 901.23462,2.1000254   L 901.23462,94.501141   L 852.33275,94.501141   L 852.33275,2.1000254   z "
     id="path150" />
  <path
     style="fill:none;stroke:#000000;stroke-width:1.6000614px;stroke-linecap:butt;stroke-linejoin:miter;stroke-miterlimit:8;stroke-dasharray:none;stroke-opacity:1;"
     clip-path="url(#clipEmfPath9)"
     d="  M 852.33275,2.1000254   L 852.33275,2.1000254   L 901.23462,2.1000254   L 901.23462,94.501141   L 852.33275,94.501141   L 852.33275,2.1000254   z "
     id="path152" />
  <path
     style="fill:none;stroke:#000000;stroke-width:1.6000614px;stroke-linecap:butt;stroke-linejoin:miter;stroke-miterlimit:8;stroke-dasharray:none;stroke-opacity:1;"
     clip-path="url(#clipEmfPath9)"
     d="  M 901.23462,2.1000254   L 901.23462,2.1000254   L 941.03615,2.1000254   L 941.03615,94.501141   L 901.23462,94.501141   L 901.23462,2.1000254   z "
     id="path154" />
  <path
     style="fill:none;stroke:#000000;stroke-width:1.6000614px;stroke-linecap:butt;stroke-linejoin:miter;stroke-miterlimit:8;stroke-dasharray:none;stroke-opacity:1;"
     clip-path="url(#clipEmfPath9)"
     d="  M 812.63122,2.1000254   L 812.63122,2.1000254   L 852.33275,2.1000254   L 852.33275,94.501141   L 812.63122,94.501141   L 812.63122,2.1000254   z "
     id="path156" />
  <path
     style="fill:#0432ff;fill-rule:nonzero;fill-opacity:1;stroke:none;"
     clip-path="url(#clipEmfPath9)"
     d="  M 849.43263,103.60125   L 849.43263,103.60125   L 849.43263,120.60146   L 853.03277,120.60146   L 853.03277,113.10137   L 859.63303,113.10137   L 859.63303,120.60146   L 863.33317,120.60146   L 863.33317,103.60125   L 859.63303,103.60125   L 859.63303,110.40133   L 853.03277,110.40133   L 853.03277,103.60125   L 849.43263,103.60125   z "
     id="path158" />
  <path
     style="fill:#0432ff;fill-rule:nonzero;fill-opacity:1;stroke:none;"
     clip-path="url(#clipEmfPath9)"
     d="  M 876.23366,109.80133   L 876.23366,109.80133   L 872.93354,108.60131   L 876.23366,107.10129   L 874.93361,104.70126   L 872.23351,107.00129   L 872.53352,103.60125   L 869.93342,103.60125   L 870.43344,106.90129   L 867.63333,104.70126   L 866.33328,107.10129   L 869.63341,108.60131   L 866.33328,109.80133   L 867.63333,112.20136   L 870.33344,109.90133   L 869.93342,113.30137   L 872.53352,113.30137   L 872.23351,109.90133   L 874.93361,112.20136   L 876.23366,109.80133   z "
     id="path160" />
  <path
     style="fill:#0432ff;fill-rule:nonzero;fill-opacity:1;stroke:none;"
     clip-path="url(#clipEmfPath9)"
     d="  M 882.73391,120.60146   L 882.73391,120.60146   L 885.83403,120.60146   L 885.83403,115.8014   L 890.43421,115.8014   L 890.43421,112.90136   L 885.83403,112.90136   L 885.83403,108.10131   L 882.73391,108.10131   L 882.73391,112.90136   L 878.13374,112.90136   L 878.13374,115.8014   L 882.73391,115.8014   L 882.73391,120.60146   z "
     id="path162" />
  <path
     style="fill:#0432ff;fill-rule:nonzero;fill-opacity:1;stroke:none;"
     clip-path="url(#clipEmfPath9)"
     d="  M 892.8343,120.60146   L 892.8343,120.60146   L 902.93469,120.60146   L 902.93469,117.70142   L 896.53444,117.70142   L 896.53444,103.60125   L 892.8343,103.60125   L 892.8343,120.60146   z "
     id="path164" />
  <path
     style="fill:none;stroke:#000000;stroke-width:4.1001577px;stroke-linecap:round;stroke-linejoin:miter;stroke-miterlimit:8;stroke-dasharray:none;stroke-opacity:1;"
     clip-path="url(#clipEmfPath9)"
     d="  M 815.53133,49.300595   L 815.53133,49.300595   L 872.53352,20.100243  "
     id="path166" />
  <path
     style="fill:none;stroke:#000000;stroke-width:4.1001577px;stroke-linecap:round;stroke-linejoin:miter;stroke-miterlimit:8;stroke-dasharray:none;stroke-opacity:1;"
     clip-path="url(#clipEmfPath9)"
     d="  M 872.63353,20.100243   L 872.63353,20.100243   L 902.03466,67.10081  "
     id="path168" />
  <path
     style="fill:none;stroke:#000000;stroke-width:4.1001577px;stroke-linecap:round;stroke-linejoin:miter;stroke-miterlimit:8;stroke-dasharray:none;stroke-opacity:1;"
     clip-path="url(#clipEmfPath9)"
     d="  M 903.33471,68.100823   L 903.33471,68.100823   L 939.83611,68.100823  "
     id="path170" />
  <path
     style="fill:#0d0d0d;fill-rule:nonzero;fill-opacity:1;stroke:none;"
     clip-path="url(#clipEmfPath1)"
     d="  M 44.401706,103.40125   L 44.401706,103.40125   L 44.401706,121.20146   L 48.201852,121.20146   L 48.201852,113.40137   L 55.202121,113.40137   L 55.202121,121.20146   L 59.002267,121.20146   L 59.002267,103.40125   L 55.202121,103.40125   L 55.202121,110.60134   L 48.201852,110.60134   L 48.201852,103.40125   L 44.401706,103.40125   z "
     id="path172" />
  <path
     style="fill:#0d0d0d;fill-rule:nonzero;fill-opacity:1;stroke:none;"
     clip-path="url(#clipEmfPath1)"
     d="  M 72.602789,109.90133   L 72.602789,109.90133   L 69.202659,108.60131   L 72.602789,107.10129   L 71.202736,104.60126   L 68.402628,107.00129   L 68.802643,103.40125   L 66.002536,103.40125   L 66.502555,106.90129   L 63.602444,104.60126   L 62.20239,107.10129   L 65.60252,108.60131   L 62.20239,109.90133   L 63.602444,112.50136   L 66.402551,110.00133   L 66.002536,113.60137   L 68.802643,113.60137   L 68.402628,110.00133   L 71.202736,112.50136   L 72.602789,109.90133   z "
     id="path174" />
  <path
     style="fill:#0d0d0d;fill-rule:nonzero;fill-opacity:1;stroke:none;"
     clip-path="url(#clipEmfPath1)"
     d="  M 179.00688,121.20146   L 179.00688,121.20146   L 189.60728,121.20146   L 189.60728,118.20143   L 182.90703,118.20143   L 182.90703,103.40125   L 179.00688,103.40125   L 179.00688,121.20146   z "
     id="path176" />
  <path
     style="fill:#0d0d0d;fill-rule:nonzero;fill-opacity:1;stroke:none;"
     clip-path="url(#clipEmfPath1)"
     d="  M 199.50766,109.90133   L 199.50766,109.90133   L 196.00753,108.60131   L 199.50766,107.10129   L 198.10761,104.60126   L 195.3075,107.00129   L 195.60752,103.40125   L 192.90741,103.40125   L 193.40743,106.90129   L 190.40732,104.60126   L 189.00726,107.10129   L 192.5074,108.60131   L 189.00726,109.90133   L 190.40732,112.50136   L 193.20742,110.00133   L 192.90741,113.60137   L 195.60752,113.60137   L 195.3075,110.00133   L 198.10761,112.50136   L 199.50766,109.90133   z "
     id="path178" />
  <path
     style="fill:#0d0d0d;fill-rule:nonzero;fill-opacity:1;stroke:none;"
     clip-path="url(#clipEmfPath1)"
     d="  M 296.91141,121.20146   L 296.91141,121.20146   L 307.51181,121.20146   L 307.51181,118.20143   L 300.71155,118.20143   L 300.71155,103.40125   L 296.91141,103.40125   L 296.91141,121.20146   z "
     id="path180" />
  <path
     style="fill:#0d0d0d;fill-rule:nonzero;fill-opacity:1;stroke:none;"
     clip-path="url(#clipEmfPath1)"
     d="  M 317.31219,109.90133   L 317.31219,109.90133   L 313.91206,108.60131   L 317.31219,107.10129   L 315.91214,104.60126   L 313.11203,107.00129   L 313.51204,103.40125   L 310.71194,103.40125   L 311.21196,106.90129   L 308.31185,104.60126   L 306.91179,107.10129   L 310.31192,108.60131   L 306.91179,109.90133   L 308.31185,112.50136   L 311.11195,110.00133   L 310.71194,113.60137   L 313.51204,113.60137   L 313.11203,110.00133   L 315.91214,112.50136   L 317.31219,109.90133   z "
     id="path182" />
  <path
     style="fill:#0d0d0d;fill-rule:nonzero;fill-opacity:1;stroke:none;"
     clip-path="url(#clipEmfPath1)"
     d="  M 324.31246,121.20146   L 324.31246,121.20146   L 327.51258,121.20146   L 327.51258,116.2014   L 332.41277,116.2014   L 332.41277,113.10137   L 327.51258,113.10137   L 327.51258,108.10131   L 324.31246,108.10131   L 324.31246,113.10137   L 319.41227,113.10137   L 319.41227,116.2014   L 324.31246,116.2014   L 324.31246,121.20146   z "
     id="path184" />
  <path
     style="fill:#0d0d0d;fill-rule:nonzero;fill-opacity:1;stroke:none;"
     clip-path="url(#clipEmfPath1)"
     d="  M 334.71286,103.40125   L 334.71286,103.40125   L 334.71286,121.20146   L 338.51301,121.20146   L 338.51301,113.40137   L 345.51327,113.40137   L 345.51327,121.20146   L 349.31342,121.20146   L 349.31342,103.40125   L 345.51327,103.40125   L 345.51327,110.60134   L 338.51301,110.60134   L 338.51301,103.40125   L 334.71286,103.40125   z "
     id="path186" />
  <path
     style="fill:#0d0d0d;fill-rule:nonzero;fill-opacity:1;stroke:none;"
     clip-path="url(#clipEmfPath1)"
     d="  M 439.41688,121.20146   L 439.41688,121.20146   L 450.01729,121.20146   L 450.01729,118.20143   L 443.31703,118.20143   L 443.31703,103.40125   L 439.41688,103.40125   L 439.41688,121.20146   z "
     id="path188" />
  <path
     style="fill:#0d0d0d;fill-rule:nonzero;fill-opacity:1;stroke:none;"
     clip-path="url(#clipEmfPath1)"
     d="  M 456.01752,121.20146   L 456.01752,121.20146   L 459.21764,121.20146   L 459.21764,116.2014   L 464.11783,116.2014   L 464.11783,113.10137   L 459.21764,113.10137   L 459.21764,108.10131   L 456.01752,108.10131   L 456.01752,113.10137   L 451.11733,113.10137   L 451.11733,116.2014   L 456.01752,116.2014   L 456.01752,121.20146   z "
     id="path190" />
  <path
     style="fill:#0d0d0d;fill-rule:nonzero;fill-opacity:1;stroke:none;"
     clip-path="url(#clipEmfPath1)"
     d="  M 466.41792,103.40125   L 466.41792,103.40125   L 466.41792,121.20146   L 470.21807,121.20146   L 470.21807,113.40137   L 477.21833,113.40137   L 477.21833,121.20146   L 481.01848,121.20146   L 481.01848,103.40125   L 477.21833,103.40125   L 477.21833,110.60134   L 470.21807,110.60134   L 470.21807,103.40125   L 466.41792,103.40125   z "
     id="path192" />
  <path
     style="fill:#0d0d0d;fill-rule:nonzero;fill-opacity:1;stroke:none;"
     clip-path="url(#clipEmfPath1)"
     d="  M 494.619,109.90133   L 494.619,109.90133   L 491.21887,108.60131   L 494.619,107.10129   L 493.21895,104.60126   L 490.41884,107.00129   L 490.81886,103.40125   L 488.01875,103.40125   L 488.51877,106.90129   L 485.61866,104.60126   L 484.2186,107.10129   L 487.61873,108.60131   L 484.2186,109.90133   L 485.61866,112.50136   L 488.41876,110.00133   L 488.01875,113.60137   L 490.81886,113.60137   L 490.41884,110.00133   L 493.21895,112.50136   L 494.619,109.90133   z "
     id="path194" />
  <path
     style="fill:#0d0d0d;fill-rule:nonzero;fill-opacity:1;stroke:none;"
     clip-path="url(#clipEmfPath1)"
     d="  M 565.12171,121.20146   L 565.12171,121.20146   L 575.82212,121.20146   L 575.82212,118.20143   L 569.02186,118.20143   L 569.02186,103.40125   L 565.12171,103.40125   L 565.12171,121.20146   z "
     id="path196" />
  <path
     style="fill:#0d0d0d;fill-rule:nonzero;fill-opacity:1;stroke:none;"
     clip-path="url(#clipEmfPath1)"
     d="  M 581.72235,121.20146   L 581.72235,121.20146   L 584.92247,121.20146   L 584.92247,116.2014   L 589.82266,116.2014   L 589.82266,113.10137   L 584.92247,113.10137   L 584.92247,108.10131   L 581.72235,108.10131   L 581.72235,113.10137   L 576.82216,113.10137   L 576.82216,116.2014   L 581.72235,116.2014   L 581.72235,121.20146   z "
     id="path198" />
  <path
     style="fill:#0d0d0d;fill-rule:nonzero;fill-opacity:1;stroke:none;"
     clip-path="url(#clipEmfPath1)"
     d="  M 591.02271,116.1014   L 591.02271,116.1014   L 604.02321,121.20146   L 604.02321,117.90142   L 595.12286,114.80139   L 595.12286,114.60138   L 604.02321,111.50135   L 604.02321,108.20131   L 591.02271,113.30137   L 591.02271,116.1014   z "
     id="path200" />
  <path
     style="fill:#0d0d0d;fill-rule:nonzero;fill-opacity:1;stroke:none;"
     clip-path="url(#clipEmfPath1)"
     d="  M 606.32329,103.40125   L 606.32329,103.40125   L 606.32329,121.20146   L 610.12344,121.20146   L 610.12344,113.40137   L 617.12371,113.40137   L 617.12371,121.20146   L 621.02386,121.20146   L 621.02386,103.40125   L 617.12371,103.40125   L 617.12371,110.60134   L 610.12344,110.60134   L 610.12344,103.40125   L 606.32329,103.40125   z "
     id="path202" />
  <path
     style="fill:#0d0d0d;fill-rule:nonzero;fill-opacity:1;stroke:none;"
     clip-path="url(#clipEmfPath1)"
     d="  M 634.52438,109.90133   L 634.52438,109.90133   L 631.12425,108.60131   L 634.52438,107.10129   L 633.12432,104.60126   L 630.32422,107.00129   L 630.72423,103.40125   L 627.92412,103.40125   L 628.42414,106.90129   L 625.52403,104.60126   L 624.12398,107.10129   L 627.52411,108.60131   L 624.12398,109.90133   L 625.52403,112.50136   L 628.32414,110.00133   L 627.92412,113.60137   L 630.72423,113.60137   L 630.32422,110.00133   L 633.12432,112.50136   L 634.52438,109.90133   z "
     id="path204" />
  <path
     style="fill:#0d0d0d;fill-rule:nonzero;fill-opacity:1;stroke:none;"
     clip-path="url(#clipEmfPath1)"
     d="  M 704.82708,105.50127   L 704.82708,105.50127   L 704.82708,123.30149   L 708.62722,123.30149   L 708.62722,115.5014   L 715.62749,115.5014   L 715.62749,123.30149   L 719.42764,123.30149   L 719.42764,105.50127   L 715.62749,105.50127   L 715.62749,112.60136   L 708.62722,112.60136   L 708.62722,105.50127   L 704.82708,105.50127   z "
     id="path206" />
  <path
     style="fill:#0d0d0d;fill-rule:nonzero;fill-opacity:1;stroke:none;"
     clip-path="url(#clipEmfPath1)"
     d="  M 726.72792,123.30149   L 726.72792,123.30149   L 729.92804,123.30149   L 729.92804,118.30143   L 734.82823,118.30143   L 734.82823,115.20139   L 729.92804,115.20139   L 729.92804,110.20133   L 726.72792,110.20133   L 726.72792,115.20139   L 721.82773,115.20139   L 721.82773,118.30143   L 726.72792,118.30143   L 726.72792,123.30149   z "
     id="path208" />
  <path
     style="fill:#0d0d0d;fill-rule:nonzero;fill-opacity:1;stroke:none;"
     clip-path="url(#clipEmfPath1)"
     d="  M 737.32833,123.30149   L 737.32833,123.30149   L 747.92873,123.30149   L 747.92873,120.30145   L 741.22848,120.30145   L 741.22848,105.50127   L 737.32833,105.50127   L 737.32833,123.30149   z "
     id="path210" />
  <path
     style="fill:#0d0d0d;fill-rule:nonzero;fill-opacity:1;stroke:none;"
     clip-path="url(#clipEmfPath1)"
     d="  M 757.82912,112.00135   L 757.82912,112.00135   L 754.32898,110.70134   L 757.82912,109.20132   L 756.42906,106.60129   L 753.62895,109.10132   L 753.92897,105.50127   L 751.22886,105.50127   L 751.72888,109.00132   L 748.72877,106.60129   L 747.32871,109.20132   L 750.82885,110.70134   L 747.32871,112.00135   L 748.72877,114.50138   L 751.52887,112.10135   L 751.22886,115.7014   L 753.92897,115.7014   L 753.62895,112.10135   L 756.42906,114.50138   L 757.82912,112.00135   z "
     id="path212" />
  <path
     style="fill:#0d0d0d;fill-rule:nonzero;fill-opacity:1;stroke:none;"
     clip-path="url(#clipEmfPath1)"
     d="  M 851.93273,103.40125   L 851.93273,103.40125   L 851.93273,121.20146   L 855.63287,121.20146   L 855.63287,113.40137   L 862.73315,113.40137   L 862.73315,121.20146   L 866.53329,121.20146   L 866.53329,103.40125   L 862.73315,103.40125   L 862.73315,110.60134   L 855.63287,110.60134   L 855.63287,103.40125   L 851.93273,103.40125   z "
     id="path214" />
  <path
     style="fill:#0d0d0d;fill-rule:nonzero;fill-opacity:1;stroke:none;"
     clip-path="url(#clipEmfPath1)"
     d="  M 880.13381,109.90133   L 880.13381,109.90133   L 876.73368,108.60131   L 880.13381,107.10129   L 878.73376,104.60126   L 875.93365,107.00129   L 876.33367,103.40125   L 873.53356,103.40125   L 874.03358,106.90129   L 871.13347,104.60126   L 869.73341,107.10129   L 873.13355,108.60131   L 869.73341,109.90133   L 871.13347,112.50136   L 873.93358,110.00133   L 873.53356,113.60137   L 876.33367,113.60137   L 875.93365,110.00133   L 878.73376,112.50136   L 880.13381,109.90133   z "
     id="path216" />
  <path
     style="fill:#0d0d0d;fill-rule:nonzero;fill-opacity:1;stroke:none;"
     clip-path="url(#clipEmfPath1)"
     d="  M 887.03408,121.20146   L 887.03408,121.20146   L 890.33421,121.20146   L 890.33421,116.2014   L 895.23439,116.2014   L 895.23439,113.10137   L 890.33421,113.10137   L 890.33421,108.10131   L 887.03408,108.10131   L 887.03408,113.10137   L 882.13389,113.10137   L 882.13389,116.2014   L 887.03408,116.2014   L 887.03408,121.20146   z "
     id="path218" />
  <path
     style="fill:#0d0d0d;fill-rule:nonzero;fill-opacity:1;stroke:none;"
     clip-path="url(#clipEmfPath1)"
     d="  M 897.73449,121.20146   L 897.73449,121.20146   L 908.3349,121.20146   L 908.3349,118.20143   L 901.53464,118.20143   L 901.53464,103.40125   L 897.73449,103.40125   L 897.73449,121.20146   z "
     id="path220" />
  <path
     style="fill:#0d0d0d;fill-rule:nonzero;fill-opacity:1;stroke:none;"
     clip-path="url(#clipEmfPath1)"
     d="  M 974.93746,123.30149   L 974.93746,123.30149   L 985.53786,123.30149   L 985.53786,120.30145   L 978.83761,120.30145   L 978.83761,105.50127   L 974.93746,105.50127   L 974.93746,123.30149   z "
     id="path222" />
  <path
     style="fill:#0d0d0d;fill-rule:nonzero;fill-opacity:1;stroke:none;"
     clip-path="url(#clipEmfPath1)"
     d="  M 991.53809,123.30149   L 991.53809,123.30149   L 994.73822,123.30149   L 994.73822,118.30143   L 999.63841,118.30143   L 999.63841,115.20139   L 994.73822,115.20139   L 994.73822,110.20133   L 991.53809,110.20133   L 991.53809,115.20139   L 986.63791,115.20139   L 986.63791,118.30143   L 991.53809,118.30143   L 991.53809,123.30149   z "
     id="path224" />
  <path
     style="fill:#0d0d0d;fill-rule:nonzero;fill-opacity:1;stroke:none;"
     clip-path="url(#clipEmfPath1)"
     d="  M 1001.9385,105.50127   L 1001.9385,105.50127   L 1001.9385,123.30149   L 1005.7386,123.30149   L 1005.7386,115.5014   L 1012.7389,115.5014   L 1012.7389,123.30149   L 1016.6391,123.30149   L 1016.6391,105.50127   L 1012.7389,105.50127   L 1012.7389,112.60136   L 1005.7386,112.60136   L 1005.7386,105.50127   L 1001.9385,105.50127   z "
     id="path226" />
  <path
     style="fill:#0d0d0d;fill-rule:nonzero;fill-opacity:1;stroke:none;"
     clip-path="url(#clipEmfPath1)"
     d="  M 1030.1396,112.00135   L 1030.1396,112.00135   L 1026.7394,110.70134   L 1030.1396,109.20132   L 1028.7395,106.60129   L 1025.9394,109.10132   L 1026.3394,105.50127   L 1023.5393,105.50127   L 1024.0393,109.00132   L 1021.1392,106.60129   L 1019.7392,109.20132   L 1023.2393,110.70134   L 1019.7392,112.00135   L 1021.1392,114.50138   L 1023.9393,112.10135   L 1023.5393,115.7014   L 1026.3394,115.7014   L 1025.9394,112.10135   L 1028.7395,114.50138   L 1030.1396,112.00135   z "
     id="path228" />
  <path
     style="fill:#0d0d0d;fill-rule:nonzero;fill-opacity:1;stroke:none;"
     clip-path="url(#clipEmfPath1)"
     d="  M 1037.1398,123.30149   L 1037.1398,123.30149   L 1040.34,123.30149   L 1040.34,118.30143   L 1045.2402,118.30143   L 1045.2402,115.20139   L 1040.34,115.20139   L 1040.34,110.20133   L 1037.1398,110.20133   L 1037.1398,115.20139   L 1032.2397,115.20139   L 1032.2397,118.30143   L 1037.1398,118.30143   L 1037.1398,123.30149   z "
     id="path230" />
  <path
     style="fill:#0d0d0d;fill-rule:nonzero;fill-opacity:1;stroke:none;"
     clip-path="url(#clipEmfPath1)"
     d="  M 1047.7403,123.30149   L 1047.7403,123.30149   L 1058.3407,123.30149   L 1058.3407,120.30145   L 1051.6404,120.30145   L 1051.6404,105.50127   L 1047.7403,105.50127   L 1047.7403,123.30149   z "
     id="path232" />
  <path
     style="fill:#d6dce5;fill-rule:nonzero;fill-opacity:1;stroke:none;"
     clip-path="url(#clipEmfPath10)"
     d="  M 991.6381,0   L 991.6381,0   L 1041.64,0   L 1041.64,93.701132   L 991.6381,93.701132   L 991.6381,0   z "
     id="path234" />
  <path
     style="fill:none;stroke:#000000;stroke-width:1.6000614px;stroke-linecap:butt;stroke-linejoin:miter;stroke-miterlimit:8;stroke-dasharray:none;stroke-opacity:1;"
     clip-path="url(#clipEmfPath10)"
     d="  M 991.6381,0   L 991.6381,0   L 1041.64,0   L 1041.64,93.701132   L 991.6381,93.701132   L 991.6381,0   z "
     id="path236" />
  <path
     style="fill:none;stroke:#000000;stroke-width:1.6000614px;stroke-linecap:butt;stroke-linejoin:miter;stroke-miterlimit:8;stroke-dasharray:none;stroke-opacity:1;"
     clip-path="url(#clipEmfPath10)"
     d="  M 1041.64,0   L 1041.64,0   L 1082.3416,0   L 1082.3416,93.701132   L 1041.64,93.701132   L 1041.64,0   z "
     id="path238" />
  <path
     style="fill:none;stroke:#000000;stroke-width:1.6000614px;stroke-linecap:butt;stroke-linejoin:miter;stroke-miterlimit:8;stroke-dasharray:none;stroke-opacity:1;"
     clip-path="url(#clipEmfPath10)"
     d="  M 951.03654,0   L 951.03654,0   L 991.6381,0   L 991.6381,93.701132   L 951.03654,93.701132   L 951.03654,0   z "
     id="path240" />
  <path
     style="fill:none;stroke:#000000;stroke-width:4.2001615px;stroke-linecap:round;stroke-linejoin:miter;stroke-miterlimit:8;stroke-dasharray:none;stroke-opacity:1;"
     clip-path="url(#clipEmfPath10)"
     d="  M 992.13812,65.900796   L 992.13812,65.900796   L 1018.1391,20.000242  "
     id="path242" />
  <path
     style="fill:none;stroke:#000000;stroke-width:4.2001615px;stroke-linecap:round;stroke-linejoin:miter;stroke-miterlimit:8;stroke-dasharray:none;stroke-opacity:1;"
     clip-path="url(#clipEmfPath10)"
     d="  M 1018.3391,20.000242   L 1018.3391,20.000242   L 1042.04,66.300801  "
     id="path244" />
  <path
     style="fill:none;stroke:#000000;stroke-width:4.2001615px;stroke-linecap:round;stroke-linejoin:miter;stroke-miterlimit:8;stroke-dasharray:none;stroke-opacity:1;"
     clip-path="url(#clipEmfPath10)"
     d="  M 1043.7401,66.900808   L 1043.7401,66.900808   L 1081.1415,66.900808  "
     id="path246" />
  <path
     style="fill:none;stroke:#000000;stroke-width:4.2001615px;stroke-linecap:round;stroke-linejoin:miter;stroke-miterlimit:8;stroke-dasharray:none;stroke-opacity:1;"
     clip-path="url(#clipEmfPath10)"
     d="  M 953.13662,66.000797   L 953.13662,66.000797   L 990.43805,66.000797  "
     id="path248" />
  <path
     style="fill:#d6dce5;fill-rule:nonzero;fill-opacity:1;stroke:none;"
     clip-path="url(#clipEmfPath11)"
     d="  M 1134.7436,0   L 1134.7436,0   L 1183.5455,0   L 1183.5455,92.70112   L 1134.7436,92.70112   L 1134.7436,0   z "
     id="path250" />
  <path
     style="fill:none;stroke:#000000;stroke-width:1.6000614px;stroke-linecap:butt;stroke-linejoin:miter;stroke-miterlimit:8;stroke-dasharray:none;stroke-opacity:1;"
     clip-path="url(#clipEmfPath11)"
     d="  M 1134.7436,0   L 1134.7436,0   L 1183.5455,0   L 1183.5455,92.70112   L 1134.7436,92.70112   L 1134.7436,0   z "
     id="path252" />
  <path
     style="fill:none;stroke:#000000;stroke-width:1.6000614px;stroke-linecap:butt;stroke-linejoin:miter;stroke-miterlimit:8;stroke-dasharray:none;stroke-opacity:1;"
     clip-path="url(#clipEmfPath11)"
     d="  M 1183.5455,0   L 1183.5455,0   L 1223.147,0   L 1223.147,92.70112   L 1183.5455,92.70112   L 1183.5455,0   z "
     id="path254" />
  <path
     style="fill:none;stroke:#000000;stroke-width:1.6000614px;stroke-linecap:butt;stroke-linejoin:miter;stroke-miterlimit:8;stroke-dasharray:none;stroke-opacity:1;"
     clip-path="url(#clipEmfPath11)"
     d="  M 1095.0421,0   L 1095.0421,0   L 1134.7436,0   L 1134.7436,92.70112   L 1095.0421,92.70112   L 1095.0421,0   z "
     id="path256" />
  <path
     style="fill:none;stroke:#000000;stroke-width:4.1001577px;stroke-linecap:round;stroke-linejoin:miter;stroke-miterlimit:8;stroke-dasharray:none;stroke-opacity:1;"
     clip-path="url(#clipEmfPath11)"
     d="  M 1136.8437,22.400271   L 1136.8437,22.400271   L 1162.6447,74.000894  "
     id="path258" />
  <path
     style="fill:none;stroke:#000000;stroke-width:4.1001577px;stroke-linecap:round;stroke-linejoin:miter;stroke-miterlimit:8;stroke-dasharray:none;stroke-opacity:1;"
     clip-path="url(#clipEmfPath11)"
     d="  M 1164.0447,73.600889   L 1164.0447,73.600889   L 1184.4455,46.800565  "
     id="path260" />
  <path
     style="fill:none;stroke:#000000;stroke-width:4.1001577px;stroke-linecap:round;stroke-linejoin:miter;stroke-miterlimit:8;stroke-dasharray:none;stroke-opacity:1;"
     clip-path="url(#clipEmfPath11)"
     d="  M 1185.5455,46.800565   L 1185.5455,46.800565   L 1220.8469,68.100823  "
     id="path262" />
  <path
     style="fill:none;stroke:#000000;stroke-width:4.1001577px;stroke-linecap:round;stroke-linejoin:miter;stroke-miterlimit:8;stroke-dasharray:none;stroke-opacity:1;"
     clip-path="url(#clipEmfPath11)"
     d="  M 1096.3421,22.700274   L 1096.3421,22.700274   L 1135.8436,21.50026  "
     id="path264" />
  <path
     style="fill:#0d0d0d;fill-rule:nonzero;fill-opacity:1;stroke:none;"
     clip-path="url(#clipEmfPath1)"
     d="  M 1116.6429,103.40125   L 1116.6429,103.40125   L 1116.6429,121.20146   L 1120.443,121.20146   L 1120.443,113.40137   L 1127.4433,113.40137   L 1127.4433,121.20146   L 1131.2435,121.20146   L 1131.2435,103.40125   L 1127.4433,103.40125   L 1127.4433,110.60134   L 1120.443,110.60134   L 1120.443,103.40125   L 1116.6429,103.40125   z "
     id="path266" />
  <path
     style="fill:#0d0d0d;fill-rule:nonzero;fill-opacity:1;stroke:none;"
     clip-path="url(#clipEmfPath1)"
     d="  M 1138.5437,121.20146   L 1138.5437,121.20146   L 1141.7439,121.20146   L 1141.7439,116.2014   L 1146.6441,116.2014   L 1146.6441,113.10137   L 1141.7439,113.10137   L 1141.7439,108.10131   L 1138.5437,108.10131   L 1138.5437,113.10137   L 1133.6436,113.10137   L 1133.6436,116.2014   L 1138.5437,116.2014   L 1138.5437,121.20146   z "
     id="path268" />
  <path
     style="fill:#0d0d0d;fill-rule:nonzero;fill-opacity:1;stroke:none;"
     clip-path="url(#clipEmfPath1)"
     d="  M 1149.1441,121.20146   L 1149.1441,121.20146   L 1159.7446,121.20146   L 1159.7446,118.20143   L 1153.0443,118.20143   L 1153.0443,103.40125   L 1149.1441,103.40125   L 1149.1441,121.20146   z "
     id="path270" />
  <path
     style="fill:#0d0d0d;fill-rule:nonzero;fill-opacity:1;stroke:none;"
     clip-path="url(#clipEmfPath1)"
     d="  M 1169.6449,109.90133   L 1169.6449,109.90133   L 1166.1448,108.60131   L 1169.6449,107.10129   L 1168.2449,104.60126   L 1165.4448,107.00129   L 1165.7448,103.40125   L 1163.0447,103.40125   L 1163.5447,106.90129   L 1160.5446,104.60126   L 1159.1445,107.10129   L 1162.6447,108.60131   L 1159.1445,109.90133   L 1160.5446,112.50136   L 1163.3447,110.00133   L 1163.0447,113.60137   L 1165.7448,113.60137   L 1165.4448,110.00133   L 1168.2449,112.50136   L 1169.6449,109.90133   z "
     id="path272" />
  <path
     style="fill:#0d0d0d;fill-rule:nonzero;fill-opacity:1;stroke:none;"
     clip-path="url(#clipEmfPath1)"
     d="  M 1176.5452,121.20146   L 1176.5452,121.20146   L 1179.8453,121.20146   L 1179.8453,116.2014   L 1184.7455,116.2014   L 1184.7455,113.10137   L 1179.8453,113.10137   L 1179.8453,108.10131   L 1176.5452,108.10131   L 1176.5452,113.10137   L 1171.645,113.10137   L 1171.645,116.2014   L 1176.5452,116.2014   L 1176.5452,121.20146   z "
     id="path274" />
  <path
     style="fill:#0d0d0d;fill-rule:nonzero;fill-opacity:1;stroke:none;"
     clip-path="url(#clipEmfPath1)"
     d="  M 1186.9456,103.40125   L 1186.9456,103.40125   L 1186.9456,121.20146   L 1190.7457,121.20146   L 1190.7457,113.40137   L 1197.846,113.40137   L 1197.846,121.20146   L 1201.6462,121.20146   L 1201.6462,103.40125   L 1197.846,103.40125   L 1197.846,110.60134   L 1190.7457,110.60134   L 1190.7457,103.40125   L 1186.9456,103.40125   z "
     id="path276" />
</svg>
