<?xml version="1.0" encoding="UTF-8" standalone="no"?>
<svg
   version="1.0"
   width="338.79999mm"
   height="60.700001mm"
   id="svg170"
   sodipodi:docname="a02HabilTheory-img007.svg"
   inkscape:version="1.2.2 (b0a8486, 2022-12-01)"
   xmlns:inkscape="http://www.inkscape.org/namespaces/inkscape"
   xmlns:sodipodi="http://sodipodi.sourceforge.net/DTD/sodipodi-0.dtd"
   xmlns="http://www.w3.org/2000/svg"
   xmlns:svg="http://www.w3.org/2000/svg">
  <sodipodi:namedview
     id="namedview172"
     pagecolor="#ffffff"
     bordercolor="#666666"
     borderopacity="1.0"
     inkscape:showpageshadow="2"
     inkscape:pageopacity="0.0"
     inkscape:pagecheckerboard="0"
     inkscape:deskcolor="#d1d1d1"
     inkscape:document-units="mm"
     showgrid="false"
     inkscape:zoom="0.46617751"
     inkscape:cx="649.96701"
     inkscape:cy="23.596162"
     inkscape:window-width="1280"
     inkscape:window-height="458"
     inkscape:window-x="0"
     inkscape:window-y="25"
     inkscape:window-maximized="0"
     inkscape:current-layer="svg170" />
  <defs
     id="defs30">
    <clipPath
       clipPathUnits="userSpaceOnUse"
       id="clipEmfPath1">
      <path
         d="  M 0,0   L 0,0   L 0,231.17145   L 1281.28,231.17145   L 1281.28,0 "
         id="path2" />
    </clipPath>
    <clipPath
       clipPathUnits="userSpaceOnUse"
       id="clipEmfPath2">
      <path
         d="  M 23.901492,47.614717   L 23.901492,47.614717   L 23.901492,229.77102   L 166.11037,229.77102   L 166.11037,47.614717 "
         id="path5" />
    </clipPath>
    <clipPath
       clipPathUnits="userSpaceOnUse"
       id="clipEmfPath3">
      <path
         d="  M 177.31107,47.614717   L 177.31107,47.614717   L 177.31107,229.77102   L 318.11986,229.77102   L 318.11986,47.614717 "
         id="path8" />
    </clipPath>
    <clipPath
       clipPathUnits="userSpaceOnUse"
       id="clipEmfPath4">
      <path
         d="  M 331.92072,47.614717   L 331.92072,47.614717   L 331.92072,229.77102   L 475.42968,229.77102   L 475.42968,47.614717 "
         id="path11" />
    </clipPath>
    <clipPath
       clipPathUnits="userSpaceOnUse"
       id="clipEmfPath5">
      <path
         d="  M 489.33055,47.614717   L 489.33055,47.614717   L 489.33055,229.77102   L 630.13934,229.77102   L 630.13934,47.614717 "
         id="path14" />
    </clipPath>
    <clipPath
       clipPathUnits="userSpaceOnUse"
       id="clipEmfPath6">
      <path
         d="  M 1121.37,47.614717   L 1121.37,47.614717   L 1121.37,229.77102   L 1263.4789,229.77102   L 1263.4789,47.614717 "
         id="path17" />
    </clipPath>
    <clipPath
       clipPathUnits="userSpaceOnUse"
       id="clipEmfPath7">
      <path
         d="  M 645.34029,47.614717   L 645.34029,47.614717   L 645.34029,229.77102   L 790.14933,229.77102   L 790.14933,47.614717 "
         id="path20" />
    </clipPath>
    <clipPath
       clipPathUnits="userSpaceOnUse"
       id="clipEmfPath8">
      <path
         d="  M 963.96018,47.614717   L 963.96018,47.614717   L 963.96018,229.77102   L 1106.1691,229.77102   L 1106.1691,47.614717 "
         id="path23" />
    </clipPath>
    <clipPath
       clipPathUnits="userSpaceOnUse"
       id="clipEmfPath9">
      <path
         d="  M 802.65011,47.614717   L 802.65011,47.614717   L 802.65011,229.77102   L 947.45915,229.77102   L 947.45915,47.614717 "
         id="path26" />
    </clipPath>
    <pattern
       id="EMFhbasepattern"
       patternUnits="userSpaceOnUse"
       width="6"
       height="6"
       x="0"
       y="0" />
  </defs>
  <path
     style="fill:none;stroke:#000000;stroke-width:2.100131px;stroke-linecap:butt;stroke-linejoin:miter;stroke-miterlimit:8;stroke-dasharray:none;stroke-opacity:1;"
     clip-path="url(#clipEmfPath2)"
     d="  M 63.90399,48.715057   L 63.90399,48.715057   L 163.11018,48.715057   L 163.11018,167.45176   L 63.90399,167.45176   L 63.90399,48.715057   z "
     id="path34" />
  <path
     style="fill:#d6dce5;fill-rule:nonzero;fill-opacity:1;stroke:none;"
     clip-path="url(#clipEmfPath2)"
     d="  M 25.001561,48.715057   L 25.001561,48.715057   L 63.90399,48.715057   L 63.90399,167.45176   L 25.001561,167.45176   L 25.001561,48.715057   z "
     id="path36" />
  <path
     style="fill:none;stroke:#000000;stroke-width:2.100131px;stroke-linecap:butt;stroke-linejoin:miter;stroke-miterlimit:8;stroke-dasharray:none;stroke-opacity:1;"
     clip-path="url(#clipEmfPath2)"
     d="  M 25.001561,48.715057   L 25.001561,48.715057   L 63.90399,48.715057   L 63.90399,167.45176   L 25.001561,167.45176   L 25.001561,48.715057   z "
     id="path38" />
  <path
     style="fill:#0d0d0d;fill-rule:nonzero;fill-opacity:1;stroke:none;"
     clip-path="url(#clipEmfPath2)"
     d="  M 71.204445,179.05534   L 71.204445,179.05534   L 71.204445,200.96211   L 75.904739,200.96211   L 75.904739,191.35915   L 84.605282,191.35915   L 84.605282,200.96211   L 89.305575,200.96211   L 89.305575,179.05534   L 84.605282,179.05534   L 84.605282,187.75803   L 75.904739,187.75803   L 75.904739,179.05534   L 71.204445,179.05534   z "
     id="path40" />
  <path
     style="fill:#0d0d0d;fill-rule:nonzero;fill-opacity:1;stroke:none;"
     clip-path="url(#clipEmfPath2)"
     d="  M 97.806106,179.85559   L 97.806106,179.85559   C 94.805919,179.85559 93.105813,182.65646 93.105813,185.55735   C 93.105813,188.65831 94.805919,191.15908 97.806106,191.15908   C 100.80629,191.15908 102.5064,188.65831 102.5064,185.55735   C 102.5064,182.65646 100.80629,179.85559 97.806106,179.85559   z  M 97.806106,188.85837   L 97.806106,188.85837   C 96.506025,188.85837 96.406019,186.85775 96.406019,185.55735   C 96.406019,184.25695 96.506025,182.05627 97.806106,182.05627   C 99.006181,182.05627 99.206193,184.25695 99.206193,185.55735   C 99.206193,186.85775 99.106187,188.85837 97.806106,188.85837   z  M 98.806168,201.86239   L 98.806168,201.86239   L 113.50709,179.05534   L 110.60691,179.05534   L 95.805981,201.86239   L 98.806168,201.86239   z  M 111.70697,189.55859   L 111.70697,189.55859   C 108.80679,189.55859 107.10669,192.35945 107.10669,195.26035   C 107.10669,198.36131 108.80679,200.96211 111.70697,200.96211   C 114.70716,200.96211 116.50727,198.36131 116.50727,195.26035   C 116.50727,192.35945 114.70716,189.55859 111.70697,189.55859   z  M 111.70697,198.6614   L 111.70697,198.6614   C 110.5069,198.6614 110.30689,196.56075 110.30689,195.26035   C 110.30689,193.95995 110.5069,191.75927 111.70697,191.75927   C 113.00705,191.75927 113.20707,193.95995 113.20707,195.26035   C 113.20707,196.56075 113.00705,198.6614 111.70697,198.6614   z "
     id="path42" />
  <path
     style="fill:none;stroke:#000000;stroke-width:5.3003311px;stroke-linecap:round;stroke-linejoin:miter;stroke-miterlimit:8;stroke-dasharray:none;stroke-opacity:1;"
     clip-path="url(#clipEmfPath2)"
     d="  M 66.604158,139.64316   L 66.604158,139.64316   L 162.11012,62.219231  "
     id="path44" />
  <path
     style="fill:none;stroke:#000000;stroke-width:2.100131px;stroke-linecap:butt;stroke-linejoin:miter;stroke-miterlimit:8;stroke-dasharray:none;stroke-opacity:1;"
     clip-path="url(#clipEmfPath3)"
     d="  M 217.41357,48.715057   L 217.41357,48.715057   L 316.21974,48.715057   L 316.21974,168.15197   L 217.41357,168.15197   L 217.41357,48.715057   z "
     id="path46" />
  <path
     style="fill:#d6dce5;fill-rule:nonzero;fill-opacity:1;stroke:none;"
     clip-path="url(#clipEmfPath3)"
     d="  M 178.41114,48.715057   L 178.41114,48.715057   L 216.41351,48.715057   L 216.41351,168.15197   L 178.41114,168.15197   L 178.41114,48.715057   z "
     id="path48" />
  <path
     style="fill:none;stroke:#000000;stroke-width:2.100131px;stroke-linecap:butt;stroke-linejoin:miter;stroke-miterlimit:8;stroke-dasharray:none;stroke-opacity:1;"
     clip-path="url(#clipEmfPath3)"
     d="  M 178.41114,48.715057   L 178.41114,48.715057   L 216.41351,48.715057   L 216.41351,168.15197   L 178.41114,168.15197   L 178.41114,48.715057   z "
     id="path50" />
  <path
     style="fill:#0d0d0d;fill-rule:nonzero;fill-opacity:1;stroke:none;"
     clip-path="url(#clipEmfPath3)"
     d="  M 228.31425,201.86239   L 228.31425,201.86239   L 241.51508,201.86239   L 241.51508,198.06122   L 233.11455,198.06122   L 233.11455,179.85559   L 228.31425,179.85559   L 228.31425,201.86239   z "
     id="path52" />
  <path
     style="fill:#0d0d0d;fill-rule:nonzero;fill-opacity:1;stroke:none;"
     clip-path="url(#clipEmfPath3)"
     d="  M 248.3155,180.65584   L 248.3155,180.65584   C 245.41532,180.65584 243.61521,183.4567 243.61521,186.3576   C 243.61521,189.45856 245.31531,192.05936 248.3155,192.05936   C 251.31569,192.05936 253.1158,189.45856 253.1158,186.3576   C 253.1158,183.4567 251.31569,180.65584 248.3155,180.65584   z  M 248.3155,189.75865   L 248.3155,189.75865   C 247.11543,189.75865 246.91541,187.658 246.91541,186.3576   C 246.91541,185.0572 247.11543,182.85652 248.3155,182.85652   C 249.61558,182.85652 249.8156,185.0572 249.8156,186.3576   C 249.8156,187.658 249.61558,189.75865 248.3155,189.75865   z  M 249.41557,202.76267   L 249.41557,202.76267   L 264.21649,179.85559   L 261.31631,179.85559   L 246.41538,202.76267   L 249.41557,202.76267   z  M 262.41638,190.35884   L 262.41638,190.35884   C 259.4162,190.35884 257.71609,193.25973 257.71609,196.16063   C 257.71609,199.26159 259.4162,201.86239 262.41638,201.86239   C 265.41657,201.86239 267.11668,199.26159 267.11668,196.16063   C 267.11668,193.25973 265.41657,190.35884 262.41638,190.35884   z  M 262.41638,199.56168   L 262.41638,199.56168   C 261.1163,199.56168 261.0163,197.46103 261.0163,196.16063   C 261.0163,194.86023 261.21631,192.65955 262.41638,192.65955   C 263.71646,192.65955 263.91648,194.86023 263.91648,196.16063   C 263.91648,197.46103 263.71646,199.56168 262.41638,199.56168   z "
     id="path54" />
  <path
     style="fill:none;stroke:#000000;stroke-width:5.4003372px;stroke-linecap:round;stroke-linejoin:miter;stroke-miterlimit:8;stroke-dasharray:none;stroke-opacity:1;"
     clip-path="url(#clipEmfPath3)"
     d="  M 219.11368,128.53973   L 219.11368,128.53973   L 314.11961,145.34492  "
     id="path56" />
  <path
     style="fill:none;stroke:#000000;stroke-width:2.100131px;stroke-linecap:butt;stroke-linejoin:miter;stroke-miterlimit:8;stroke-dasharray:none;stroke-opacity:1;"
     clip-path="url(#clipEmfPath4)"
     d="  M 371.92322,48.715057   L 371.92322,48.715057   L 471.42943,48.715057   L 471.42943,167.45176   L 371.92322,167.45176   L 371.92322,48.715057   z "
     id="path58" />
  <path
     style="fill:#d6dce5;fill-rule:nonzero;fill-opacity:1;stroke:none;"
     clip-path="url(#clipEmfPath4)"
     d="  M 333.02079,48.715057   L 333.02079,48.715057   L 371.92322,48.715057   L 371.92322,167.45176   L 333.02079,167.45176   L 333.02079,48.715057   z "
     id="path60" />
  <path
     style="fill:none;stroke:#000000;stroke-width:2.100131px;stroke-linecap:butt;stroke-linejoin:miter;stroke-miterlimit:8;stroke-dasharray:none;stroke-opacity:1;"
     clip-path="url(#clipEmfPath4)"
     d="  M 333.02079,48.715057   L 333.02079,48.715057   L 371.92322,48.715057   L 371.92322,167.45176   L 333.02079,167.45176   L 333.02079,48.715057   z "
     id="path62" />
  <path
     style="fill:#0d0d0d;fill-rule:nonzero;fill-opacity:1;stroke:none;"
     clip-path="url(#clipEmfPath4)"
     d="  M 375.22343,198.46134   L 375.22343,198.46134   C 375.22343,199.9618 376.32349,200.96211 377.62357,200.96211   C 379.02366,200.96211 380.12373,199.9618 380.12373,198.46134   C 380.12373,197.06091 379.02366,196.0606 377.62357,196.0606   C 376.32349,196.0606 375.22343,197.06091 375.22343,198.46134   z  M 380.02372,179.05534   L 380.02372,179.05534   L 375.42344,179.05534   L 376.02348,194.16001   L 379.42369,194.16001   L 380.02372,179.05534   z "
     id="path64" />
  <path
     style="fill:#0d0d0d;fill-rule:nonzero;fill-opacity:1;stroke:none;"
     clip-path="url(#clipEmfPath4)"
     d="  M 385.82409,179.05534   L 385.82409,179.05534   L 385.82409,200.96211   L 390.52438,200.96211   L 390.52438,191.35915   L 399.22492,191.35915   L 399.22492,200.96211   L 403.92522,200.96211   L 403.92522,179.05534   L 399.22492,179.05534   L 399.22492,187.75803   L 390.52438,187.75803   L 390.52438,179.05534   L 385.82409,179.05534   z "
     id="path66" />
  <path
     style="fill:#0d0d0d;fill-rule:nonzero;fill-opacity:1;stroke:none;"
     clip-path="url(#clipEmfPath4)"
     d="  M 412.42575,179.85559   L 412.42575,179.85559   C 409.52557,179.85559 407.72545,182.65646 407.72545,185.55735   C 407.72545,188.65831 409.42556,191.15908 412.42575,191.15908   C 415.42593,191.15908 417.12604,188.65831 417.12604,185.55735   C 417.12604,182.65646 415.42593,179.85559 412.42575,179.85559   z  M 412.42575,188.85837   L 412.42575,188.85837   C 411.22567,188.85837 411.02566,186.85775 411.02566,185.55735   C 411.02566,184.25695 411.22567,182.05627 412.42575,182.05627   C 413.72583,182.05627 413.92584,184.25695 413.92584,185.55735   C 413.92584,186.85775 413.72583,188.85837 412.42575,188.85837   z  M 413.52582,201.86239   L 413.52582,201.86239   L 428.22673,179.05534   L 425.32655,179.05534   L 410.52563,201.86239   L 413.52582,201.86239   z  M 426.42662,189.55859   L 426.42662,189.55859   C 423.52644,189.55859 421.72633,192.35945 421.72633,195.26035   C 421.72633,198.36131 423.42643,200.96211 426.42662,200.96211   C 429.42681,200.96211 431.12692,198.36131 431.12692,195.26035   C 431.12692,192.35945 429.42681,189.55859 426.42662,189.55859   z  M 426.42662,198.6614   L 426.42662,198.6614   C 425.22655,198.6614 425.02653,196.56075 425.02653,195.26035   C 425.02653,193.95995 425.22655,191.75927 426.42662,191.75927   C 427.7267,191.75927 427.92672,193.95995 427.92672,195.26035   C 427.92672,196.56075 427.7267,198.6614 426.42662,198.6614   z "
     id="path68" />
  <path
     style="fill:none;stroke:#000000;stroke-width:5.4003372px;stroke-linecap:round;stroke-linejoin:miter;stroke-miterlimit:8;stroke-dasharray:none;stroke-opacity:1;"
     clip-path="url(#clipEmfPath4)"
     d="  M 373.62333,139.54313   L 373.62333,139.54313   L 471.12941,108.63358  "
     id="path70" />
  <path
     style="fill:#000000;fill-rule:nonzero;fill-opacity:1;stroke:none;"
     clip-path="url(#clipEmfPath4)"
     d="  M 376.52351,65.020097   L 376.52351,65.020097   L 376.52351,65.020097   C 377.92359,65.42022 378.72364,66.920684 378.32362,68.321117   C 377.92359,69.72155 376.4235,70.621828 375.02341,70.121673   L 375.02341,70.121673   C 373.52332,69.72155 372.72327,68.221086 373.12329,66.820653   C 373.62333,65.42022 375.12342,64.519942 376.52351,65.020097   L 376.52351,65.020097   z  M 386.92416,68.021024   L 386.92416,68.021024   L 386.92416,68.021024   C 388.32424,68.421148 389.12429,69.921612 388.72427,71.422075   C 388.32424,72.822508 386.82415,73.622755 385.32406,73.222632   L 385.32406,73.222632   C 383.92397,72.822508 383.12392,71.322044 383.52394,69.821581   C 383.92397,68.421148 385.42406,67.6209 386.92416,68.021024   L 386.92416,68.021024   z  M 397.2248,71.021952   L 397.2248,71.021952   L 397.2248,71.121983   C 398.72489,71.522106 399.52494,73.02257 399.12492,74.423003   C 398.72489,75.823436 397.12479,76.623683 395.7247,76.223559   L 395.7247,76.223559   C 394.32462,75.823436 393.52457,74.322972 393.92459,72.922539   C 394.32462,71.422075 395.82471,70.621828 397.2248,71.021952   L 397.2248,71.021952   z  M 407.62545,74.12291   L 407.62545,74.12291   L 407.62545,74.12291   C 409.02554,74.523034 409.92559,76.023497 409.42556,77.42393   C 409.02554,78.924394 407.52544,79.724641 406.12535,79.324518   L 406.12535,79.324518   C 404.72527,78.924394 403.82521,77.42393 404.32524,75.923467   C 404.72527,74.523034 406.22536,73.722786 407.62545,74.12291   L 407.62545,74.12291   z  M 418.0261,77.123838   L 418.0261,77.123838   L 418.0261,77.123838   C 419.42618,77.623992 420.22623,79.124456 419.82621,80.524889   C 419.42618,81.925322 417.92609,82.725569 416.526,82.325445   L 416.526,82.325445   C 415.02591,81.925322 414.22586,80.424858 414.62588,79.024425   C 415.12592,77.523961 416.62601,76.723714 418.0261,77.123838   L 418.0261,77.123838   z  M 428.42675,80.224796   L 428.42675,80.224796   L 428.42675,80.224796   C 429.82683,80.62492 430.62688,82.125383 430.22686,83.525816   C 429.82683,85.02628 428.32674,85.826527 426.82665,85.426404   L 426.82665,85.426404   C 425.42656,84.926249 424.62651,83.425785 425.02653,82.025353   C 425.42656,80.62492 426.92665,79.824672 428.42675,80.224796   L 428.42675,80.224796   z  M 438.72739,83.225724   L 438.72739,83.225724   L 438.72739,83.225724   C 440.22748,83.625847 441.02753,85.126311 440.62751,86.626775   C 440.22748,88.027208 438.72739,88.827455 437.2273,88.427331   L 437.2273,88.427331   C 435.82721,88.027208 435.02716,86.526744 435.42718,85.126311   C 435.82721,83.625847 437.3273,82.8256 438.72739,83.225724   L 438.72739,83.225724   z  M 449.12804,86.326682   L 449.12804,86.326682   L 449.12804,86.326682   C 450.52813,86.726806 451.42818,88.227269 450.92815,89.627702   C 450.52813,91.028135 449.02803,91.928413 447.62795,91.428259   L 447.62795,91.428259   C 446.22786,91.028135 445.3278,89.527671 445.82783,88.127239   C 446.22786,86.726806 447.72795,85.826527 449.12804,86.326682   L 449.12804,86.326682   z  M 459.52869,89.32761   L 459.52869,89.32761   L 459.52869,89.32761   C 460.92878,89.727733 461.72883,91.228197 461.3288,92.728661   C 460.92878,94.129094 459.42868,94.929341 458.02859,94.529217   L 458.02859,94.529217   C 456.5285,94.129094 455.72845,92.62863 456.12848,91.128166   C 456.62851,89.727733 458.1286,88.927486 459.52869,89.32761   L 459.52869,89.32761   z "
     id="path72" />
  <path
     style="fill:none;stroke:#000000;stroke-width:5.4003372px;stroke-linecap:round;stroke-linejoin:miter;stroke-miterlimit:8;stroke-dasharray:none;stroke-opacity:1;"
     clip-path="url(#clipEmfPath5)"
     d="  M 529.73307,138.94294   L 529.73307,138.94294   L 573.93583,80.724951  "
     id="path74" />
  <path
     style="fill:none;stroke:#000000;stroke-width:2.100131px;stroke-linecap:butt;stroke-linejoin:miter;stroke-miterlimit:8;stroke-dasharray:none;stroke-opacity:1;"
     clip-path="url(#clipEmfPath5)"
     d="  M 529.13303,48.715057   L 529.13303,48.715057   L 628.23922,48.715057   L 628.23922,168.15197   L 529.13303,168.15197   L 529.13303,48.715057   z "
     id="path76" />
  <path
     style="fill:#d6dce5;fill-rule:nonzero;fill-opacity:1;stroke:none;"
     clip-path="url(#clipEmfPath5)"
     d="  M 490.43062,48.715057   L 490.43062,48.715057   L 529.13303,48.715057   L 529.13303,168.15197   L 490.43062,168.15197   L 490.43062,48.715057   z "
     id="path78" />
  <path
     style="fill:none;stroke:#000000;stroke-width:2.100131px;stroke-linecap:butt;stroke-linejoin:miter;stroke-miterlimit:8;stroke-dasharray:none;stroke-opacity:1;"
     clip-path="url(#clipEmfPath5)"
     d="  M 490.43062,48.715057   L 490.43062,48.715057   L 529.13303,48.715057   L 529.13303,168.15197   L 490.43062,168.15197   L 490.43062,48.715057   z "
     id="path80" />
  <path
     style="fill:#0d0d0d;fill-rule:nonzero;fill-opacity:1;stroke:none;"
     clip-path="url(#clipEmfPath5)"
     d="  M 529.13303,179.85559   L 529.13303,179.85559   L 529.13303,201.86239   L 533.73332,201.86239   L 533.73332,192.15939   L 542.43386,192.15939   L 542.43386,201.86239   L 547.13416,201.86239   L 547.13416,179.85559   L 542.43386,179.85559   L 542.43386,188.65831   L 533.73332,188.65831   L 533.73332,179.85559   L 529.13303,179.85559   z "
     id="path82" />
  <path
     style="fill:#0d0d0d;fill-rule:nonzero;fill-opacity:1;stroke:none;"
     clip-path="url(#clipEmfPath5)"
     d="  M 551.73444,201.86239   L 551.73444,201.86239   L 564.83526,201.86239   L 564.83526,198.06122   L 556.53474,198.06122   L 556.53474,179.85559   L 551.73444,179.85559   L 551.73444,201.86239   z "
     id="path84" />
  <path
     style="fill:#0d0d0d;fill-rule:nonzero;fill-opacity:1;stroke:none;"
     clip-path="url(#clipEmfPath5)"
     d="  M 571.63569,180.65584   L 571.63569,180.65584   C 568.6355,180.65584 566.93539,183.4567 566.93539,186.3576   C 566.93539,189.45856 568.6355,192.05936 571.63569,192.05936   C 574.63587,192.05936 576.33598,189.45856 576.33598,186.3576   C 576.33598,183.4567 574.63587,180.65584 571.63569,180.65584   z  M 571.63569,189.75865   L 571.63569,189.75865   C 570.33561,189.75865 570.2356,187.658 570.2356,186.3576   C 570.2356,185.0572 570.43561,182.85652 571.63569,182.85652   C 572.93577,182.85652 573.03577,185.0572 573.03577,186.3576   C 573.03577,187.658 572.93577,189.75865 571.63569,189.75865   z  M 572.63575,202.76267   L 572.63575,202.76267   L 587.33667,179.85559   L 584.43649,179.85559   L 569.63556,202.76267   L 572.63575,202.76267   z  M 585.63656,190.35884   L 585.63656,190.35884   C 582.63637,190.35884 580.93627,193.25973 580.93627,196.16063   C 580.93627,199.26159 582.63637,201.86239 585.63656,201.86239   C 588.53674,201.86239 590.33685,199.26159 590.33685,196.16063   C 590.33685,193.25973 588.53674,190.35884 585.63656,190.35884   z  M 585.63656,199.56168   L 585.63656,199.56168   C 584.33648,199.56168 584.13647,197.46103 584.13647,196.16063   C 584.13647,194.86023 584.33648,192.65955 585.63656,192.65955   C 586.83664,192.65955 587.03665,194.86023 587.03665,196.16063   C 587.03665,197.46103 586.93664,199.56168 585.63656,199.56168   z "
     id="path86" />
  <path
     style="fill:none;stroke:#000000;stroke-width:5.4003372px;stroke-linecap:round;stroke-linejoin:miter;stroke-miterlimit:8;stroke-dasharray:none;stroke-opacity:1;"
     clip-path="url(#clipEmfPath5)"
     d="  M 573.83582,80.724951   L 573.83582,80.724951   L 625.73906,138.94294  "
     id="path88" />
  <path
     style="fill:#000000;fill-rule:nonzero;fill-opacity:1;stroke:none;"
     clip-path="url(#clipEmfPath5)"
     d="  M 531.8332,81.72526   L 531.8332,81.72526   L 531.93321,81.72526   C 533.3333,81.72526 534.53337,80.424858 534.53337,78.924394   C 534.53337,77.42393 533.3333,76.223559 531.8332,76.223559   L 531.8332,76.223559   C 530.33311,76.223559 529.13303,77.523961 529.13303,79.024425   C 529.13303,80.524889 530.43311,81.72526 531.8332,81.72526   L 531.8332,81.72526   z  M 542.63388,81.625229   L 542.63388,81.625229   L 542.63388,81.625229   C 544.13397,81.525198 545.33405,80.324827 545.33405,78.824363   C 545.33405,77.323899 544.13397,76.123528 542.63388,76.123528   L 542.63388,76.123528   C 541.13378,76.123528 539.93371,77.42393 539.93371,78.924394   C 539.93371,80.424858 541.13378,81.625229 542.63388,81.625229   L 542.63388,81.625229   z  M 553.43455,81.525198   L 553.43455,81.525198   L 553.43455,81.525198   C 554.93464,81.425167 556.13472,80.224796 556.13472,78.724332   C 556.13472,77.223869 554.83464,76.023497 553.43455,76.023497   L 553.33454,76.023497   C 551.93446,76.023497 550.73438,77.323899 550.73438,78.824363   C 550.73438,80.324827 551.93446,81.525198 553.43455,81.525198   L 553.43455,81.525198   z  M 564.23523,81.425167   L 564.23523,81.425167   L 564.23523,81.425167   C 565.73532,81.325136 566.93539,80.124765 566.83539,78.624301   C 566.83539,77.123838 565.63531,75.923467 564.13522,75.923467   L 564.13522,75.923467   C 562.63513,75.923467 561.43505,77.223869 561.53506,78.724332   C 561.53506,80.224796 562.73513,81.425167 564.23523,81.425167   L 564.23523,81.425167   z  M 574.93589,81.325136   L 574.93589,81.325136   L 574.93589,81.325136   C 576.43599,81.225105 577.63606,80.024734 577.63606,78.52427   C 577.63606,77.023807 576.43599,75.823436 574.93589,75.823436   L 574.93589,75.823436   C 573.4358,75.823436 572.23572,77.123838 572.23572,78.624301   C 572.23572,80.124765 573.53581,81.325136 574.93589,81.325136   L 574.93589,81.325136   z "
     id="path90" />
  <path
     style="fill:none;stroke:#000000;stroke-width:2.100131px;stroke-linecap:butt;stroke-linejoin:miter;stroke-miterlimit:8;stroke-dasharray:none;stroke-opacity:1;"
     clip-path="url(#clipEmfPath6)"
     d="  M 1161.2725,48.715057   L 1161.2725,48.715057   L 1260.5787,48.715057   L 1260.5787,167.45176   L 1161.2725,167.45176   L 1161.2725,48.715057   z "
     id="path92" />
  <path
     style="fill:#d6dce5;fill-rule:nonzero;fill-opacity:1;stroke:none;"
     clip-path="url(#clipEmfPath6)"
     d="  M 1122.4701,48.715057   L 1122.4701,48.715057   L 1161.2725,48.715057   L 1161.2725,167.45176   L 1122.4701,167.45176   L 1122.4701,48.715057   z "
     id="path94" />
  <path
     style="fill:none;stroke:#000000;stroke-width:2.100131px;stroke-linecap:butt;stroke-linejoin:miter;stroke-miterlimit:8;stroke-dasharray:none;stroke-opacity:1;"
     clip-path="url(#clipEmfPath6)"
     d="  M 1122.4701,48.715057   L 1122.4701,48.715057   L 1161.2725,48.715057   L 1161.2725,167.45176   L 1122.4701,167.45176   L 1122.4701,48.715057   z "
     id="path96" />
  <path
     style="fill:#0d0d0d;fill-rule:nonzero;fill-opacity:1;stroke:none;"
     clip-path="url(#clipEmfPath6)"
     d="  M 1153.272,200.96211   L 1153.272,200.96211   L 1166.3728,200.96211   L 1166.3728,197.16094   L 1158.0723,197.16094   L 1158.0723,179.05534   L 1153.272,179.05534   L 1153.272,200.96211   z "
     id="path98" />
  <path
     style="fill:#0d0d0d;fill-rule:nonzero;fill-opacity:1;stroke:none;"
     clip-path="url(#clipEmfPath6)"
     d="  M 1169.073,179.05534   L 1169.073,179.05534   L 1169.073,200.96211   L 1173.7733,200.96211   L 1173.7733,191.35915   L 1182.3738,191.35915   L 1182.3738,200.96211   L 1187.1741,200.96211   L 1187.1741,179.05534   L 1182.3738,179.05534   L 1182.3738,187.75803   L 1173.7733,187.75803   L 1173.7733,179.05534   L 1169.073,179.05534   z "
     id="path100" />
  <path
     style="fill:#0d0d0d;fill-rule:nonzero;fill-opacity:1;stroke:none;"
     clip-path="url(#clipEmfPath6)"
     d="  M 1191.7744,200.96211   L 1191.7744,200.96211   L 1204.7752,200.96211   L 1204.7752,197.16094   L 1196.4747,197.16094   L 1196.4747,179.05534   L 1191.7744,179.05534   L 1191.7744,200.96211   z "
     id="path102" />
  <path
     style="fill:#0d0d0d;fill-rule:nonzero;fill-opacity:1;stroke:none;"
     clip-path="url(#clipEmfPath6)"
     d="  M 1211.6756,179.85559   L 1211.6756,179.85559   C 1208.6755,179.85559 1206.9754,182.65646 1206.9754,185.55735   C 1206.9754,188.65831 1208.6755,191.15908 1211.6756,191.15908   C 1214.6758,191.15908 1216.3759,188.65831 1216.3759,185.55735   C 1216.3759,182.65646 1214.6758,179.85559 1211.6756,179.85559   z  M 1211.6756,188.85837   L 1211.6756,188.85837   C 1210.3756,188.85837 1210.2756,186.85775 1210.2756,185.55735   C 1210.2756,184.25695 1210.3756,182.05627 1211.6756,182.05627   C 1212.9757,182.05627 1213.0757,184.25695 1213.0757,185.55735   C 1213.0757,186.85775 1212.9757,188.85837 1211.6756,188.85837   z  M 1212.6757,201.86239   L 1212.6757,201.86239   L 1227.3766,179.05534   L 1224.4764,179.05534   L 1209.6755,201.86239   L 1212.6757,201.86239   z  M 1225.6765,189.55859   L 1225.6765,189.55859   C 1222.6763,189.55859 1220.9762,192.35945 1220.9762,195.26035   C 1220.9762,198.36131 1222.6763,200.96211 1225.6765,200.96211   C 1228.5767,200.96211 1230.3768,198.36131 1230.3768,195.26035   C 1230.3768,192.35945 1228.5767,189.55859 1225.6765,189.55859   z  M 1225.6765,198.6614   L 1225.6765,198.6614   C 1224.3764,198.6614 1224.1764,196.56075 1224.1764,195.26035   C 1224.1764,193.95995 1224.3764,191.75927 1225.6765,191.75927   C 1226.8766,191.75927 1227.0766,193.95995 1227.0766,195.26035   C 1227.0766,196.56075 1226.9766,198.6614 1225.6765,198.6614   z "
     id="path104" />
  <path
     style="fill:none;stroke:#000000;stroke-width:5.3003311px;stroke-linecap:round;stroke-linejoin:miter;stroke-miterlimit:8;stroke-dasharray:none;stroke-opacity:1;"
     clip-path="url(#clipEmfPath6)"
     d="  M 1161.7725,108.63358   L 1161.7725,108.63358   L 1193.3745,134.44155  "
     id="path106" />
  <path
     style="fill:none;stroke:#000000;stroke-width:5.3003311px;stroke-linecap:round;stroke-linejoin:miter;stroke-miterlimit:8;stroke-dasharray:none;stroke-opacity:1;"
     clip-path="url(#clipEmfPath6)"
     d="  M 1227.6766,98.930578   L 1227.6766,98.930578   L 1258.9786,133.9414  "
     id="path108" />
  <path
     style="fill:none;stroke:#000000;stroke-width:5.3003311px;stroke-linecap:round;stroke-linejoin:miter;stroke-miterlimit:8;stroke-dasharray:none;stroke-opacity:1;"
     clip-path="url(#clipEmfPath6)"
     d="  M 1193.0745,135.44186   L 1193.0745,135.44186   L 1227.6766,98.930578  "
     id="path110" />
  <path
     style="fill:none;stroke:#000000;stroke-width:5.4003372px;stroke-linecap:round;stroke-linejoin:miter;stroke-miterlimit:8;stroke-dasharray:none;stroke-opacity:1;"
     clip-path="url(#clipEmfPath7)"
     d="  M 686.24284,138.94294   L 686.24284,138.94294   L 731.04564,80.724951  "
     id="path112" />
  <path
     style="fill:none;stroke:#000000;stroke-width:2.100131px;stroke-linecap:butt;stroke-linejoin:miter;stroke-miterlimit:8;stroke-dasharray:none;stroke-opacity:1;"
     clip-path="url(#clipEmfPath7)"
     d="  M 685.6428,48.715057   L 685.6428,48.715057   L 786.04907,48.715057   L 786.04907,168.15197   L 685.6428,168.15197   L 685.6428,48.715057   z "
     id="path114" />
  <path
     style="fill:#d6dce5;fill-rule:nonzero;fill-opacity:1;stroke:none;"
     clip-path="url(#clipEmfPath7)"
     d="  M 646.44036,48.715057   L 646.44036,48.715057   L 685.6428,48.715057   L 685.6428,168.15197   L 646.44036,168.15197   L 646.44036,48.715057   z "
     id="path116" />
  <path
     style="fill:none;stroke:#000000;stroke-width:2.100131px;stroke-linecap:butt;stroke-linejoin:miter;stroke-miterlimit:8;stroke-dasharray:none;stroke-opacity:1;"
     clip-path="url(#clipEmfPath7)"
     d="  M 646.44036,48.715057   L 646.44036,48.715057   L 685.6428,48.715057   L 685.6428,168.15197   L 646.44036,168.15197   L 646.44036,48.715057   z "
     id="path118" />
  <path
     style="fill:#0d0d0d;fill-rule:nonzero;fill-opacity:1;stroke:none;"
     clip-path="url(#clipEmfPath7)"
     d="  M 675.9422,179.85559   L 675.9422,179.85559   L 675.9422,201.86239   L 680.7425,201.86239   L 680.7425,192.15939   L 689.44304,192.15939   L 689.44304,201.86239   L 694.24334,201.86239   L 694.24334,179.85559   L 689.44304,179.85559   L 689.44304,188.65831   L 680.7425,188.65831   L 680.7425,179.85559   L 675.9422,179.85559   z "
     id="path120" />
  <path
     style="fill:#0d0d0d;fill-rule:nonzero;fill-opacity:1;stroke:none;"
     clip-path="url(#clipEmfPath7)"
     d="  M 700.14371,199.36162   L 700.14371,199.36162   C 700.14371,200.86208 701.24378,201.86239 702.64387,201.86239   C 704.04395,201.86239 705.14402,200.86208 705.14402,199.36162   C 705.14402,197.96119 704.04395,196.96088 702.64387,196.96088   C 701.24378,196.96088 700.14371,197.96119 700.14371,199.36162   z  M 704.94401,179.85559   L 704.94401,179.85559   L 700.34372,179.85559   L 700.94376,195.06029   L 704.34397,195.06029   L 704.94401,179.85559   z "
     id="path122" />
  <path
     style="fill:#0d0d0d;fill-rule:nonzero;fill-opacity:1;stroke:none;"
     clip-path="url(#clipEmfPath7)"
     d="  M 710.94438,179.85559   L 710.94438,179.85559   L 710.94438,201.86239   L 715.64468,201.86239   L 715.64468,192.15939   L 724.44523,192.15939   L 724.44523,201.86239   L 729.24553,201.86239   L 729.24553,179.85559   L 724.44523,179.85559   L 724.44523,188.65831   L 715.64468,188.65831   L 715.64468,179.85559   L 710.94438,179.85559   z "
     id="path124" />
  <path
     style="fill:#0d0d0d;fill-rule:nonzero;fill-opacity:1;stroke:none;"
     clip-path="url(#clipEmfPath7)"
     d="  M 737.74606,180.65584   L 737.74606,180.65584   C 734.74587,180.65584 733.04576,183.4567 733.04576,186.3576   C 733.04576,189.45856 734.74587,192.05936 737.74606,192.05936   C 740.74624,192.05936 742.54636,189.45856 742.54636,186.3576   C 742.54636,183.4567 740.74624,180.65584 737.74606,180.65584   z  M 737.74606,189.75865   L 737.74606,189.75865   C 736.44598,189.75865 736.34597,187.658 736.34597,186.3576   C 736.34597,185.0572 736.54598,182.85652 737.74606,182.85652   C 739.04614,182.85652 739.24615,185.0572 739.24615,186.3576   C 739.24615,187.658 739.04614,189.75865 737.74606,189.75865   z  M 738.84613,202.76267   L 738.84613,202.76267   L 753.64705,179.85559   L 750.74687,179.85559   L 735.74593,202.76267   L 738.84613,202.76267   z  M 751.94694,190.35884   L 751.94694,190.35884   C 748.94676,190.35884 747.14664,193.25973 747.14664,196.16063   C 747.14664,199.26159 748.84675,201.86239 751.94694,201.86239   C 754.94713,201.86239 756.64724,199.26159 756.64724,196.16063   C 756.64724,193.25973 754.94713,190.35884 751.94694,190.35884   z  M 751.94694,199.56168   L 751.94694,199.56168   C 750.64686,199.56168 750.44685,197.46103 750.44685,196.16063   C 750.44685,194.86023 750.64686,192.65955 751.94694,192.65955   C 753.14702,192.65955 753.34703,194.86023 753.34703,196.16063   C 753.34703,197.46103 753.24703,199.56168 751.94694,199.56168   z "
     id="path126" />
  <path
     style="fill:none;stroke:#000000;stroke-width:5.4003372px;stroke-linecap:round;stroke-linejoin:miter;stroke-miterlimit:8;stroke-dasharray:none;stroke-opacity:1;"
     clip-path="url(#clipEmfPath7)"
     d="  M 729.84556,79.624611   L 729.84556,79.624611   L 785.84906,97.530145  "
     id="path128" />
  <path
     style="fill:#000000;fill-rule:nonzero;fill-opacity:1;stroke:none;"
     clip-path="url(#clipEmfPath7)"
     d="  M 688.44298,81.72526   L 688.44298,81.72526   L 688.44298,81.72526   C 689.94307,81.72526 691.14315,80.424858 691.14315,78.924394   C 691.14315,77.42393 689.94307,76.223559 688.44298,76.223559   L 688.34297,76.223559   C 686.84288,76.223559 685.6428,77.523961 685.6428,79.024425   C 685.74281,80.524889 686.94289,81.72526 688.44298,81.72526   L 688.44298,81.72526   z  M 699.34366,81.625229   L 699.34366,81.625229   L 699.34366,81.625229   C 700.84375,81.525198 702.04383,80.324827 702.04383,78.824363   C 702.04383,77.323899 700.84375,76.123528 699.34366,76.123528   L 699.34366,76.123528   C 697.84357,76.123528 696.54349,77.42393 696.64349,78.924394   C 696.64349,80.424858 697.84357,81.625229 699.34366,81.625229   L 699.34366,81.625229   z  M 710.24434,81.525198   L 710.24434,81.525198   L 710.24434,81.525198   C 711.74443,81.425167 712.94451,80.224796 712.94451,78.724332   C 712.94451,77.223869 711.74443,76.023497 710.24434,76.023497   L 710.24434,76.023497   C 708.74425,76.023497 707.54417,77.323899 707.54417,78.824363   C 707.54417,80.324827 708.74425,81.525198 710.24434,81.525198   L 710.24434,81.525198   z  M 721.14502,81.425167   L 721.14502,81.425167   L 721.14502,81.425167   C 722.74512,81.325136 723.9452,80.124765 723.84519,78.624301   C 723.84519,77.123838 722.64511,75.923467 721.14502,75.923467   L 721.14502,75.923467   C 719.64493,75.923467 718.44485,77.223869 718.44485,78.724332   C 718.44485,80.224796 719.64493,81.425167 721.14502,81.425167   L 721.14502,81.425167   z  M 732.14571,81.325136   L 732.14571,81.325136   L 732.14571,81.325136   C 733.6458,81.225105 734.84588,80.024734 734.84588,78.52427   C 734.74587,77.023807 733.5458,75.823436 732.0457,75.823436   L 732.0457,75.823436   C 730.54561,75.823436 729.34553,77.123838 729.34553,78.624301   C 729.34553,80.124765 730.54561,81.325136 732.14571,81.325136   L 732.14571,81.325136   z "
     id="path130" />
  <path
     style="fill:none;stroke:#000000;stroke-width:2.100131px;stroke-linecap:butt;stroke-linejoin:miter;stroke-miterlimit:8;stroke-dasharray:none;stroke-opacity:1;"
     clip-path="url(#clipEmfPath8)"
     d="  M 1003.9627,48.715057   L 1003.9627,48.715057   L 1103.1689,48.715057   L 1103.1689,167.45176   L 1003.9627,167.45176   L 1003.9627,48.715057   z "
     id="path132" />
  <path
     style="fill:#d6dce5;fill-rule:nonzero;fill-opacity:1;stroke:none;"
     clip-path="url(#clipEmfPath8)"
     d="  M 965.06025,48.715057   L 965.06025,48.715057   L 1003.9627,48.715057   L 1003.9627,167.45176   L 965.06025,167.45176   L 965.06025,48.715057   z "
     id="path134" />
  <path
     style="fill:none;stroke:#000000;stroke-width:2.100131px;stroke-linecap:butt;stroke-linejoin:miter;stroke-miterlimit:8;stroke-dasharray:none;stroke-opacity:1;"
     clip-path="url(#clipEmfPath8)"
     d="  M 965.06025,48.715057   L 965.06025,48.715057   L 1003.9627,48.715057   L 1003.9627,167.45176   L 965.06025,167.45176   L 965.06025,48.715057   z "
     id="path136" />
  <path
     style="fill:#0d0d0d;fill-rule:nonzero;fill-opacity:1;stroke:none;"
     clip-path="url(#clipEmfPath8)"
     d="  M 1003.8627,200.96211   L 1003.8627,200.96211   L 1016.9635,200.96211   L 1016.9635,197.16094   L 1008.563,197.16094   L 1008.563,179.05534   L 1003.8627,179.05534   L 1003.8627,200.96211   z "
     id="path138" />
  <path
     style="fill:#0d0d0d;fill-rule:nonzero;fill-opacity:1;stroke:none;"
     clip-path="url(#clipEmfPath8)"
     d="  M 1019.6637,179.05534   L 1019.6637,179.05534   L 1019.6637,200.96211   L 1024.2639,200.96211   L 1024.2639,191.35915   L 1032.9645,191.35915   L 1032.9645,200.96211   L 1037.6648,200.96211   L 1037.6648,179.05534   L 1032.9645,179.05534   L 1032.9645,187.75803   L 1024.2639,187.75803   L 1024.2639,179.05534   L 1019.6637,179.05534   z "
     id="path140" />
  <path
     style="fill:#0d0d0d;fill-rule:nonzero;fill-opacity:1;stroke:none;"
     clip-path="url(#clipEmfPath8)"
     d="  M 1046.1653,179.85559   L 1046.1653,179.85559   C 1043.1651,179.85559 1041.465,182.65646 1041.465,185.55735   C 1041.465,188.65831 1043.1651,191.15908 1046.1653,191.15908   C 1049.1655,191.15908 1050.8656,188.65831 1050.8656,185.55735   C 1050.8656,182.65646 1049.1655,179.85559 1046.1653,179.85559   z  M 1046.1653,188.85837   L 1046.1653,188.85837   C 1044.8652,188.85837 1044.7652,186.85775 1044.7652,185.55735   C 1044.7652,184.25695 1044.9652,182.05627 1046.1653,182.05627   C 1047.4654,182.05627 1047.6654,184.25695 1047.6654,185.55735   C 1047.6654,186.85775 1047.4654,188.85837 1046.1653,188.85837   z  M 1047.1654,201.86239   L 1047.1654,201.86239   L 1061.8663,179.05534   L 1058.9661,179.05534   L 1044.1652,201.86239   L 1047.1654,201.86239   z  M 1060.1662,189.55859   L 1060.1662,189.55859   C 1057.166,189.55859 1055.4659,192.35945 1055.4659,195.26035   C 1055.4659,198.36131 1057.166,200.96211 1060.1662,200.96211   C 1063.1664,200.96211 1064.8665,198.36131 1064.8665,195.26035   C 1064.8665,192.35945 1063.1664,189.55859 1060.1662,189.55859   z  M 1060.1662,198.6614   L 1060.1662,198.6614   C 1058.8661,198.6614 1058.7661,196.56075 1058.7661,195.26035   C 1058.7661,193.95995 1058.8661,191.75927 1060.1662,191.75927   C 1061.4663,191.75927 1061.5663,193.95995 1061.5663,195.26035   C 1061.5663,196.56075 1061.4663,198.6614 1060.1662,198.6614   z "
     id="path142" />
  <path
     style="fill:none;stroke:#000000;stroke-width:5.3003311px;stroke-linecap:round;stroke-linejoin:miter;stroke-miterlimit:8;stroke-dasharray:none;stroke-opacity:1;"
     clip-path="url(#clipEmfPath8)"
     d="  M 1005.5628,139.94325   L 1005.5628,139.94325   L 1053.4658,139.94325  "
     id="path144" />
  <path
     style="fill:none;stroke:#000000;stroke-width:5.3003311px;stroke-linecap:round;stroke-linejoin:miter;stroke-miterlimit:8;stroke-dasharray:none;stroke-opacity:1;"
     clip-path="url(#clipEmfPath8)"
     d="  M 1054.0658,139.94325   L 1054.0658,139.94325   L 1101.6688,71.92223  "
     id="path146" />
  <path
     style="fill:#000000;fill-rule:nonzero;fill-opacity:1;stroke:none;"
     clip-path="url(#clipEmfPath8)"
     d="  M 1007.6629,75.623374   L 1007.6629,75.623374   L 1007.6629,75.623374   C 1008.563,76.723714 1008.463,78.42424 1007.2629,79.424549   C 1006.1628,80.324827 1004.4627,80.124765 1003.4626,79.024425   L 1003.4626,79.024425   C 1002.5626,77.824054 1002.6626,76.123528 1003.8627,75.22325   C 1004.9627,74.222941 1006.6628,74.423003 1007.6629,75.623374   L 1007.6629,75.623374   z  M 1014.4633,83.92594   L 1014.4633,83.92594   L 1014.4633,83.92594   C 1015.4634,85.126311 1015.2634,86.826837 1014.1633,87.727115   C 1012.9632,88.627393 1011.2631,88.527362 1010.3631,87.326991   L 1010.3631,87.326991   C 1009.363,86.226651 1009.563,84.526126 1010.6631,83.525816   C 1011.8632,82.625538 1013.5633,82.725569 1014.4633,83.92594   L 1014.4633,83.92594   z  M 1021.3638,92.228506   L 1021.3638,92.228506   L 1021.3638,92.228506   C 1022.2638,93.428877 1022.1638,95.129403 1020.9637,96.029681   C 1019.8637,97.02999 1018.1636,96.829928 1017.1635,95.729588   L 1017.1635,95.729588   C 1016.2634,94.529217 1016.3635,92.828692 1017.5635,91.928413   C 1018.6636,90.928104 1020.3637,91.128166 1021.3638,92.228506   L 1021.3638,92.228506   z  M 1028.1642,100.6311   L 1028.1642,100.6311   L 1028.1642,100.6311   C 1029.1643,101.73144 1028.9642,103.43197 1027.8642,104.43228   C 1026.6641,105.33256 1024.964,105.23253 1024.0639,104.03215   L 1024.0639,104.03215   C 1023.0639,102.93181 1023.2639,101.23129 1024.364,100.23098   C 1025.564,99.330701 1027.2641,99.430732 1028.1642,100.6311   L 1028.1642,100.6311   z  M 1035.0646,108.93367   L 1035.0646,108.93367   L 1035.0646,108.93367   C 1035.9647,110.13404 1035.8647,111.83457 1034.6646,112.73484   C 1033.5645,113.73515 1031.8644,113.53509 1030.8644,112.43475   L 1030.8644,112.43475   C 1029.9643,111.23438 1030.0643,109.53385 1031.2644,108.63358   C 1032.3645,107.63327 1034.0646,107.83333 1035.0646,108.93367   L 1035.0646,108.93367   z  M 1041.865,117.33627   L 1041.865,117.33627   L 1041.865,117.33627   C 1042.8651,118.43661 1042.6651,120.13713 1041.565,121.13744   C 1040.3649,122.03772 1038.6648,121.93769 1037.7648,120.73732   L 1037.7648,120.73732   C 1036.7647,119.63698 1036.9647,117.93645 1038.0648,116.93614   C 1039.2649,116.03586 1040.965,116.1359 1041.865,117.33627   L 1041.865,117.33627   z  M 1048.7655,125.63883   L 1048.7655,125.63883   L 1048.7655,125.63883   C 1049.6655,126.8392 1049.5655,128.53973 1048.3654,129.44001   C 1047.2654,130.44032 1045.5653,130.24025 1044.5652,129.13991   L 1044.5652,129.13991   C 1043.6652,127.93954 1043.7652,126.23902 1044.9652,125.33874   C 1046.0653,124.33843 1047.7654,124.53849 1048.7655,125.63883   L 1048.7655,125.63883   z  M 1055.5659,134.04143   L 1055.5659,134.04143   L 1055.5659,134.04143   C 1056.566,135.14177 1056.3659,136.8423 1055.2659,137.8426   C 1054.0658,138.74288 1052.3657,138.64285 1051.4656,137.44248   L 1051.4656,137.44248   C 1050.4656,136.24211 1050.6656,134.54158 1051.7657,133.64131   C 1052.9657,132.74103 1054.6658,132.84106 1055.5659,134.04143   L 1055.5659,134.04143   z "
     id="path148" />
  <path
     style="fill:none;stroke:#000000;stroke-width:2.100131px;stroke-linecap:butt;stroke-linejoin:miter;stroke-miterlimit:8;stroke-dasharray:none;stroke-opacity:1;"
     clip-path="url(#clipEmfPath9)"
     d="  M 842.75261,48.715057   L 842.75261,48.715057   L 942.35883,48.715057   L 942.35883,167.45176   L 842.75261,167.45176   L 842.75261,48.715057   z "
     id="path150" />
  <path
     style="fill:#d6dce5;fill-rule:nonzero;fill-opacity:1;stroke:none;"
     clip-path="url(#clipEmfPath9)"
     d="  M 803.75018,48.715057   L 803.75018,48.715057   L 842.75261,48.715057   L 842.75261,167.45176   L 803.75018,167.45176   L 803.75018,48.715057   z "
     id="path152" />
  <path
     style="fill:none;stroke:#000000;stroke-width:2.100131px;stroke-linecap:butt;stroke-linejoin:miter;stroke-miterlimit:8;stroke-dasharray:none;stroke-opacity:1;"
     clip-path="url(#clipEmfPath9)"
     d="  M 803.75018,48.715057   L 803.75018,48.715057   L 842.75261,48.715057   L 842.75261,167.45176   L 803.75018,167.45176   L 803.75018,48.715057   z "
     id="path154" />
  <path
     style="fill:#0d0d0d;fill-rule:nonzero;fill-opacity:1;stroke:none;"
     clip-path="url(#clipEmfPath9)"
     d="  M 836.85224,200.96211   L 836.85224,200.96211   L 849.95306,200.96211   L 849.95306,197.16094   L 841.55254,197.16094   L 841.55254,179.05534   L 836.85224,179.05534   L 836.85224,200.96211   z "
     id="path156" />
  <path
     style="fill:#0d0d0d;fill-rule:nonzero;fill-opacity:1;stroke:none;"
     clip-path="url(#clipEmfPath9)"
     d="  M 854.15332,198.46134   L 854.15332,198.46134   C 854.15332,199.9618 855.25339,200.96211 856.55347,200.96211   C 857.95356,200.96211 859.05363,199.9618 859.05363,198.46134   C 859.05363,197.06091 857.95356,196.0606 856.55347,196.0606   C 855.25339,196.0606 854.15332,197.06091 854.15332,198.46134   z  M 858.95362,179.05534   L 858.95362,179.05534   L 854.35334,179.05534   L 854.95337,194.16001   L 858.25358,194.16001   L 858.95362,179.05534   z "
     id="path158" />
  <path
     style="fill:#0d0d0d;fill-rule:nonzero;fill-opacity:1;stroke:none;"
     clip-path="url(#clipEmfPath9)"
     d="  M 864.75399,179.05534   L 864.75399,179.05534   L 864.75399,200.96211   L 869.45428,200.96211   L 869.45428,191.35915   L 878.15482,191.35915   L 878.15482,200.96211   L 882.95512,200.96211   L 882.95512,179.05534   L 878.15482,179.05534   L 878.15482,187.75803   L 869.45428,187.75803   L 869.45428,179.05534   L 864.75399,179.05534   z "
     id="path160" />
  <path
     style="fill:#0d0d0d;fill-rule:nonzero;fill-opacity:1;stroke:none;"
     clip-path="url(#clipEmfPath9)"
     d="  M 891.45565,179.85559   L 891.45565,179.85559   C 888.45547,179.85559 886.75536,182.65646 886.75536,185.55735   C 886.75536,188.65831 888.45547,191.15908 891.45565,191.15908   C 894.45584,191.15908 896.15595,188.65831 896.15595,185.55735   C 896.15595,182.65646 894.45584,179.85559 891.45565,179.85559   z  M 891.45565,188.85837   L 891.45565,188.85837   C 890.15557,188.85837 890.05557,186.85775 890.05557,185.55735   C 890.05557,184.25695 890.15557,182.05627 891.45565,182.05627   C 892.75573,182.05627 892.85574,184.25695 892.85574,185.55735   C 892.85574,186.85775 892.75573,188.85837 891.45565,188.85837   z  M 892.45572,201.86239   L 892.45572,201.86239   L 907.25664,179.05534   L 904.35646,179.05534   L 889.45553,201.86239   L 892.45572,201.86239   z  M 905.45653,189.55859   L 905.45653,189.55859   C 902.45634,189.55859 900.75623,192.35945 900.75623,195.26035   C 900.75623,198.36131 902.45634,200.96211 905.45653,200.96211   C 908.45671,200.96211 910.15682,198.36131 910.15682,195.26035   C 910.15682,192.35945 908.45671,189.55859 905.45653,189.55859   z  M 905.45653,198.6614   L 905.45653,198.6614   C 904.15645,198.6614 904.05644,196.56075 904.05644,195.26035   C 904.05644,193.95995 904.25645,191.75927 905.45653,191.75927   C 906.75661,191.75927 906.95662,193.95995 906.95662,195.26035   C 906.95662,196.56075 906.75661,198.6614 905.45653,198.6614   z "
     id="path162" />
  <path
     style="fill:none;stroke:#000000;stroke-width:5.4003372px;stroke-linecap:round;stroke-linejoin:miter;stroke-miterlimit:8;stroke-dasharray:none;stroke-opacity:1;"
     clip-path="url(#clipEmfPath9)"
     d="  M 845.45278,139.94325   L 845.45278,139.94325   L 893.45578,139.94325  "
     id="path164" />
  <path
     style="fill:none;stroke:#000000;stroke-width:5.4003372px;stroke-linecap:round;stroke-linejoin:miter;stroke-miterlimit:8;stroke-dasharray:none;stroke-opacity:1;"
     clip-path="url(#clipEmfPath9)"
     d="  M 895.25589,137.94264   L 895.25589,137.94264   L 943.25889,108.63358  "
     id="path166" />
  <path
     style="fill:#000000;fill-rule:nonzero;fill-opacity:1;stroke:none;"
     clip-path="url(#clipEmfPath9)"
     d="  M 847.55291,77.724023   L 847.55291,77.724023   L 847.55291,77.724023   C 848.45297,78.924394 848.35296,80.62492 847.15289,81.525198   C 845.95281,82.525507 844.25271,82.325445 843.35265,81.125074   L 843.35265,81.125074   C 842.35259,80.024734 842.5526,78.324209 843.75268,77.323899   C 844.85274,76.423621 846.55285,76.623683 847.55291,77.724023   L 847.55291,77.724023   z  M 854.45334,86.12662   L 854.45334,86.12662   L 854.45334,86.12662   C 855.3534,87.22696 855.15339,88.927486 854.05332,89.927795   C 852.85324,90.828073 851.15314,90.628011 850.25308,89.527671   L 850.25308,89.527671   C 849.25302,88.3273 849.45303,86.626775 850.5531,85.726497   C 851.75317,84.726187 853.45328,84.926249 854.45334,86.12662   L 854.45334,86.12662   z  M 861.25377,94.429186   L 861.25377,94.429186   L 861.25377,94.429186   C 862.25383,95.629557 862.05382,97.330083 860.95375,98.230361   C 859.75367,99.23067 858.05357,99.030609 857.05351,97.830238   L 857.05351,97.830238   C 856.15345,96.729897 856.35346,95.029372 857.45353,94.029063   C 858.65361,93.128784 860.35371,93.328846 861.25377,94.429186   L 861.25377,94.429186   z  M 868.1542,102.73175   L 868.1542,102.73175   L 868.1542,102.83178   C 869.15426,103.93212 868.95425,105.63265 867.75417,106.63296   C 866.6541,107.53324 864.954,107.33317 863.95394,106.23283   L 863.95394,106.23283   C 863.05388,105.03246 863.15389,103.33194 864.35396,102.43166   C 865.45403,101.43135 867.25414,101.63141 868.1542,102.73175   L 868.1542,102.73175   z  M 875.05463,111.13435   L 875.05463,111.13435   L 875.05463,111.13435   C 875.95469,112.23469 875.85468,114.03525 874.6546,114.93552   C 873.45453,115.8358 871.75442,115.73577 870.85437,114.5354   L 870.85437,114.5354   C 869.8543,113.43506 870.05432,111.73454 871.25439,110.73423   C 872.35446,109.83395 874.05457,109.93398 875.05463,111.13435   L 875.05463,111.13435   z  M 881.85505,119.43692   L 881.85505,119.43692   L 881.95506,119.43692   C 882.85512,120.63729 882.6551,122.33781 881.55504,123.23809   C 880.35496,124.2384 878.65485,124.03834 877.7548,122.938   L 877.7548,122.938   C 876.75474,121.73763 876.95475,120.0371 878.05482,119.13682   C 879.25489,118.13651 880.955,118.33658 881.85505,119.43692   L 881.85505,119.43692   z  M 888.75548,127.83951   L 888.75548,127.83951   L 888.75548,127.83951   C 889.75555,128.93985 889.55553,130.64038 888.45547,131.64069   C 887.25539,132.54097 885.55528,132.44094 884.55522,131.24056   L 884.55522,131.24056   C 883.65517,130.14022 883.85518,128.4397 884.95525,127.43939   C 886.15532,126.53911 887.85543,126.63914 888.75548,127.83951   L 888.75548,127.83951   z  M 895.65592,136.14208   L 895.65592,136.14208   L 895.65592,136.14208   C 896.65598,137.34245 896.45597,139.04298 895.25589,139.94325   C 894.15582,140.94356 892.45572,140.7435 891.45565,139.64316   L 891.45565,139.64316   C 890.5556,138.44279 890.6556,136.74226 891.85568,135.84199   C 892.95575,134.84168 894.65585,135.04174 895.65592,136.14208   L 895.65592,136.14208   z "
     id="path168" />
</svg>
