<?xml version="1.0" encoding="UTF-8" standalone="no"?>
<svg
   version="1.0"
   width="338.79999mm"
   height="60.700001mm"
   id="svg170"
   sodipodi:docname="a08HabilAppendix-img003.svg"
   inkscape:version="1.2.2 (b0a8486, 2022-12-01)"
   xmlns:inkscape="http://www.inkscape.org/namespaces/inkscape"
   xmlns:sodipodi="http://sodipodi.sourceforge.net/DTD/sodipodi-0.dtd"
   xmlns="http://www.w3.org/2000/svg"
   xmlns:svg="http://www.w3.org/2000/svg">
  <sodipodi:namedview
     id="namedview172"
     pagecolor="#ffffff"
     bordercolor="#666666"
     borderopacity="1.0"
     inkscape:showpageshadow="2"
     inkscape:pageopacity="0.0"
     inkscape:pagecheckerboard="0"
     inkscape:deskcolor="#d1d1d1"
     inkscape:document-units="mm"
     showgrid="false"
     showguides="true"
     inkscape:zoom="0.92151223"
     inkscape:cx="640.25195"
     inkscape:cy="260.44147"
     inkscape:window-width="1280"
     inkscape:window-height="458"
     inkscape:window-x="0"
     inkscape:window-y="25"
     inkscape:window-maximized="0"
     inkscape:current-layer="svg170">
    <sodipodi:guide
       position="23.873801,51.448988"
       orientation="1,0"
       id="guide1059"
       inkscape:locked="false" />
  </sodipodi:namedview>
  <defs
     id="defs30">
    <clipPath
       clipPathUnits="userSpaceOnUse"
       id="clipEmfPath1">
      <path
         d="  M 0,0   L 0,0   L 0,231.17145   L 1281.28,231.17145   L 1281.28,0 "
         id="path2" />
    </clipPath>
    <clipPath
       clipPathUnits="userSpaceOnUse"
       id="clipEmfPath2">
      <path
         d="  M 23.901492,47.614717   L 23.901492,47.614717   L 23.901492,229.77102   L 166.11037,229.77102   L 166.11037,47.614717 "
         id="path5" />
    </clipPath>
    <clipPath
       clipPathUnits="userSpaceOnUse"
       id="clipEmfPath3">
      <path
         d="  M 177.31107,47.614717   L 177.31107,47.614717   L 177.31107,229.77102   L 318.11986,229.77102   L 318.11986,47.614717 "
         id="path8" />
    </clipPath>
    <clipPath
       clipPathUnits="userSpaceOnUse"
       id="clipEmfPath4">
      <path
         d="  M 331.92072,47.614717   L 331.92072,47.614717   L 331.92072,229.77102   L 475.42968,229.77102   L 475.42968,47.614717 "
         id="path11" />
    </clipPath>
    <clipPath
       clipPathUnits="userSpaceOnUse"
       id="clipEmfPath5">
      <path
         d="  M 489.33055,47.614717   L 489.33055,47.614717   L 489.33055,229.77102   L 630.13934,229.77102   L 630.13934,47.614717 "
         id="path14" />
    </clipPath>
    <clipPath
       clipPathUnits="userSpaceOnUse"
       id="clipEmfPath6">
      <path
         d="  M 1121.37,47.614717   L 1121.37,47.614717   L 1121.37,229.77102   L 1263.4789,229.77102   L 1263.4789,47.614717 "
         id="path17" />
    </clipPath>
    <clipPath
       clipPathUnits="userSpaceOnUse"
       id="clipEmfPath7">
      <path
         d="  M 645.34029,47.614717   L 645.34029,47.614717   L 645.34029,229.77102   L 790.14933,229.77102   L 790.14933,47.614717 "
         id="path20" />
    </clipPath>
    <clipPath
       clipPathUnits="userSpaceOnUse"
       id="clipEmfPath8">
      <path
         d="  M 963.96018,47.614717   L 963.96018,47.614717   L 963.96018,229.77102   L 1106.1691,229.77102   L 1106.1691,47.614717 "
         id="path23" />
    </clipPath>
    <clipPath
       clipPathUnits="userSpaceOnUse"
       id="clipEmfPath9">
      <path
         d="  M 802.65011,47.614717   L 802.65011,47.614717   L 802.65011,229.77102   L 947.45915,229.77102   L 947.45915,47.614717 "
         id="path26" />
    </clipPath>
    <pattern
       id="EMFhbasepattern"
       patternUnits="userSpaceOnUse"
       width="6"
       height="6"
       x="0"
       y="0" />
    <clipPath
       clipPathUnits="userSpaceOnUse"
       id="clipEmfPath5-9">
      <path
         d="m 489.33055,47.614717 v 0 182.156303 H 630.13934 V 47.614717"
         id="path14-3" />
    </clipPath>
    <clipPath
       clipPathUnits="userSpaceOnUse"
       id="clipPath342">
      <path
         d="m 489.33055,47.614717 v 0 182.156303 H 630.13934 V 47.614717"
         id="path340" />
    </clipPath>
    <clipPath
       clipPathUnits="userSpaceOnUse"
       id="clipPath346">
      <path
         d="m 489.33055,47.614717 v 0 182.156303 H 630.13934 V 47.614717"
         id="path344" />
    </clipPath>
    <clipPath
       clipPathUnits="userSpaceOnUse"
       id="clipPath350">
      <path
         d="m 489.33055,47.614717 v 0 182.156303 H 630.13934 V 47.614717"
         id="path348" />
    </clipPath>
    <clipPath
       clipPathUnits="userSpaceOnUse"
       id="clipPath354">
      <path
         d="m 489.33055,47.614717 v 0 182.156303 H 630.13934 V 47.614717"
         id="path352" />
    </clipPath>
    <clipPath
       clipPathUnits="userSpaceOnUse"
       id="clipPath358">
      <path
         d="m 489.33055,47.614717 v 0 182.156303 H 630.13934 V 47.614717"
         id="path356" />
    </clipPath>
    <clipPath
       clipPathUnits="userSpaceOnUse"
       id="clipPath362">
      <path
         d="m 489.33055,47.614717 v 0 182.156303 H 630.13934 V 47.614717"
         id="path360" />
    </clipPath>
    <clipPath
       clipPathUnits="userSpaceOnUse"
       id="clipPath366">
      <path
         d="m 489.33055,47.614717 v 0 182.156303 H 630.13934 V 47.614717"
         id="path364" />
    </clipPath>
    <clipPath
       clipPathUnits="userSpaceOnUse"
       id="clipPath370">
      <path
         d="m 489.33055,47.614717 v 0 182.156303 H 630.13934 V 47.614717"
         id="path368" />
    </clipPath>
    <clipPath
       clipPathUnits="userSpaceOnUse"
       id="clipEmfPath6-8">
      <path
         d="m 1121.37,47.614717 v 0 182.156303 h 142.1089 V 47.614717"
         id="path17-0" />
    </clipPath>
    <clipPath
       clipPathUnits="userSpaceOnUse"
       id="clipPath376">
      <path
         d="m 1121.37,47.614717 v 0 182.156303 h 142.1089 V 47.614717"
         id="path374" />
    </clipPath>
    <clipPath
       clipPathUnits="userSpaceOnUse"
       id="clipPath380">
      <path
         d="m 1121.37,47.614717 v 0 182.156303 h 142.1089 V 47.614717"
         id="path378" />
    </clipPath>
    <clipPath
       clipPathUnits="userSpaceOnUse"
       id="clipPath384">
      <path
         d="m 1121.37,47.614717 v 0 182.156303 h 142.1089 V 47.614717"
         id="path382" />
    </clipPath>
    <clipPath
       clipPathUnits="userSpaceOnUse"
       id="clipPath388">
      <path
         d="m 1121.37,47.614717 v 0 182.156303 h 142.1089 V 47.614717"
         id="path386" />
    </clipPath>
    <clipPath
       clipPathUnits="userSpaceOnUse"
       id="clipPath392">
      <path
         d="m 1121.37,47.614717 v 0 182.156303 h 142.1089 V 47.614717"
         id="path390" />
    </clipPath>
    <clipPath
       clipPathUnits="userSpaceOnUse"
       id="clipPath396">
      <path
         d="m 1121.37,47.614717 v 0 182.156303 h 142.1089 V 47.614717"
         id="path394" />
    </clipPath>
    <clipPath
       clipPathUnits="userSpaceOnUse"
       id="clipPath400">
      <path
         d="m 1121.37,47.614717 v 0 182.156303 h 142.1089 V 47.614717"
         id="path398" />
    </clipPath>
    <clipPath
       clipPathUnits="userSpaceOnUse"
       id="clipPath404">
      <path
         d="m 1121.37,47.614717 v 0 182.156303 h 142.1089 V 47.614717"
         id="path402" />
    </clipPath>
    <clipPath
       clipPathUnits="userSpaceOnUse"
       id="clipPath408">
      <path
         d="m 1121.37,47.614717 v 0 182.156303 h 142.1089 V 47.614717"
         id="path406" />
    </clipPath>
    <clipPath
       clipPathUnits="userSpaceOnUse"
       id="clipEmfPath7-2">
      <path
         d="m 645.34029,47.614717 v 0 182.156303 H 790.14933 V 47.614717"
         id="path20-4" />
    </clipPath>
    <clipPath
       clipPathUnits="userSpaceOnUse"
       id="clipPath414">
      <path
         d="m 645.34029,47.614717 v 0 182.156303 H 790.14933 V 47.614717"
         id="path412" />
    </clipPath>
    <clipPath
       clipPathUnits="userSpaceOnUse"
       id="clipPath418">
      <path
         d="m 645.34029,47.614717 v 0 182.156303 H 790.14933 V 47.614717"
         id="path416" />
    </clipPath>
    <clipPath
       clipPathUnits="userSpaceOnUse"
       id="clipPath422">
      <path
         d="m 645.34029,47.614717 v 0 182.156303 H 790.14933 V 47.614717"
         id="path420" />
    </clipPath>
    <clipPath
       clipPathUnits="userSpaceOnUse"
       id="clipPath426">
      <path
         d="m 645.34029,47.614717 v 0 182.156303 H 790.14933 V 47.614717"
         id="path424" />
    </clipPath>
    <clipPath
       clipPathUnits="userSpaceOnUse"
       id="clipPath430">
      <path
         d="m 645.34029,47.614717 v 0 182.156303 H 790.14933 V 47.614717"
         id="path428" />
    </clipPath>
    <clipPath
       clipPathUnits="userSpaceOnUse"
       id="clipPath434">
      <path
         d="m 645.34029,47.614717 v 0 182.156303 H 790.14933 V 47.614717"
         id="path432" />
    </clipPath>
    <clipPath
       clipPathUnits="userSpaceOnUse"
       id="clipPath438">
      <path
         d="m 645.34029,47.614717 v 0 182.156303 H 790.14933 V 47.614717"
         id="path436" />
    </clipPath>
    <clipPath
       clipPathUnits="userSpaceOnUse"
       id="clipPath442">
      <path
         d="m 645.34029,47.614717 v 0 182.156303 H 790.14933 V 47.614717"
         id="path440" />
    </clipPath>
    <clipPath
       clipPathUnits="userSpaceOnUse"
       id="clipPath446">
      <path
         d="m 645.34029,47.614717 v 0 182.156303 H 790.14933 V 47.614717"
         id="path444" />
    </clipPath>
    <clipPath
       clipPathUnits="userSpaceOnUse"
       id="clipEmfPath8-8">
      <path
         d="m 963.96018,47.614717 v 0 182.156303 H 1106.1691 V 47.614717"
         id="path23-3" />
    </clipPath>
    <clipPath
       clipPathUnits="userSpaceOnUse"
       id="clipPath452">
      <path
         d="m 963.96018,47.614717 v 0 182.156303 H 1106.1691 V 47.614717"
         id="path450" />
    </clipPath>
    <clipPath
       clipPathUnits="userSpaceOnUse"
       id="clipPath456">
      <path
         d="m 963.96018,47.614717 v 0 182.156303 H 1106.1691 V 47.614717"
         id="path454" />
    </clipPath>
    <clipPath
       clipPathUnits="userSpaceOnUse"
       id="clipPath460">
      <path
         d="m 963.96018,47.614717 v 0 182.156303 H 1106.1691 V 47.614717"
         id="path458" />
    </clipPath>
    <clipPath
       clipPathUnits="userSpaceOnUse"
       id="clipPath464">
      <path
         d="m 963.96018,47.614717 v 0 182.156303 H 1106.1691 V 47.614717"
         id="path462" />
    </clipPath>
    <clipPath
       clipPathUnits="userSpaceOnUse"
       id="clipPath468">
      <path
         d="m 963.96018,47.614717 v 0 182.156303 H 1106.1691 V 47.614717"
         id="path466" />
    </clipPath>
    <clipPath
       clipPathUnits="userSpaceOnUse"
       id="clipPath472">
      <path
         d="m 963.96018,47.614717 v 0 182.156303 H 1106.1691 V 47.614717"
         id="path470" />
    </clipPath>
    <clipPath
       clipPathUnits="userSpaceOnUse"
       id="clipPath476">
      <path
         d="m 963.96018,47.614717 v 0 182.156303 H 1106.1691 V 47.614717"
         id="path474" />
    </clipPath>
    <clipPath
       clipPathUnits="userSpaceOnUse"
       id="clipPath480">
      <path
         d="m 963.96018,47.614717 v 0 182.156303 H 1106.1691 V 47.614717"
         id="path478" />
    </clipPath>
    <clipPath
       clipPathUnits="userSpaceOnUse"
       id="clipEmfPath9-9">
      <path
         d="m 802.65011,47.614717 v 0 182.156303 H 947.45915 V 47.614717"
         id="path26-0" />
    </clipPath>
    <clipPath
       clipPathUnits="userSpaceOnUse"
       id="clipPath486">
      <path
         d="m 802.65011,47.614717 v 0 182.156303 H 947.45915 V 47.614717"
         id="path484" />
    </clipPath>
    <clipPath
       clipPathUnits="userSpaceOnUse"
       id="clipPath490">
      <path
         d="m 802.65011,47.614717 v 0 182.156303 H 947.45915 V 47.614717"
         id="path488" />
    </clipPath>
    <clipPath
       clipPathUnits="userSpaceOnUse"
       id="clipPath494">
      <path
         d="m 802.65011,47.614717 v 0 182.156303 H 947.45915 V 47.614717"
         id="path492" />
    </clipPath>
    <clipPath
       clipPathUnits="userSpaceOnUse"
       id="clipPath498">
      <path
         d="m 802.65011,47.614717 v 0 182.156303 H 947.45915 V 47.614717"
         id="path496" />
    </clipPath>
    <clipPath
       clipPathUnits="userSpaceOnUse"
       id="clipPath502">
      <path
         d="m 802.65011,47.614717 v 0 182.156303 H 947.45915 V 47.614717"
         id="path500" />
    </clipPath>
    <clipPath
       clipPathUnits="userSpaceOnUse"
       id="clipPath506">
      <path
         d="m 802.65011,47.614717 v 0 182.156303 H 947.45915 V 47.614717"
         id="path504" />
    </clipPath>
    <clipPath
       clipPathUnits="userSpaceOnUse"
       id="clipPath510">
      <path
         d="m 802.65011,47.614717 v 0 182.156303 H 947.45915 V 47.614717"
         id="path508" />
    </clipPath>
    <clipPath
       clipPathUnits="userSpaceOnUse"
       id="clipPath514">
      <path
         d="m 802.65011,47.614717 v 0 182.156303 H 947.45915 V 47.614717"
         id="path512" />
    </clipPath>
    <clipPath
       clipPathUnits="userSpaceOnUse"
       id="clipPath518">
      <path
         d="m 802.65011,47.614717 v 0 182.156303 H 947.45915 V 47.614717"
         id="path516" />
    </clipPath>
  </defs>
  <path
     style="fill:none;stroke:#000000;stroke-width:2.100131px;stroke-linecap:butt;stroke-linejoin:miter;stroke-miterlimit:8;stroke-dasharray:none;stroke-opacity:1;"
     clip-path="url(#clipEmfPath2)"
     d="  M 63.90399,48.715057   L 63.90399,48.715057   L 163.11018,48.715057   L 163.11018,167.45176   L 63.90399,167.45176   L 63.90399,48.715057   z "
     id="path34" />
  <path
     style="fill:#d6dce5;fill-rule:nonzero;fill-opacity:1;stroke:none;"
     clip-path="url(#clipEmfPath2)"
     d="  M 25.001561,48.715057   L 25.001561,48.715057   L 63.90399,48.715057   L 63.90399,167.45176   L 25.001561,167.45176   L 25.001561,48.715057   z "
     id="path36" />
  <path
     style="fill:none;stroke:#000000;stroke-width:2.100131px;stroke-linecap:butt;stroke-linejoin:miter;stroke-miterlimit:8;stroke-dasharray:none;stroke-opacity:1;"
     clip-path="url(#clipEmfPath2)"
     d="  M 25.001561,48.715057   L 25.001561,48.715057   L 63.90399,48.715057   L 63.90399,167.45176   L 25.001561,167.45176   L 25.001561,48.715057   z "
     id="path38" />
  <path
     style="fill:#0d0d0d;fill-rule:nonzero;fill-opacity:1;stroke:none;"
     clip-path="url(#clipEmfPath2)"
     d="  M 71.204445,179.05534   L 71.204445,179.05534   L 71.204445,200.96211   L 75.904739,200.96211   L 75.904739,191.35915   L 84.605282,191.35915   L 84.605282,200.96211   L 89.305575,200.96211   L 89.305575,179.05534   L 84.605282,179.05534   L 84.605282,187.75803   L 75.904739,187.75803   L 75.904739,179.05534   L 71.204445,179.05534   z "
     id="path40" />
  <path
     style="fill:#0d0d0d;fill-rule:nonzero;fill-opacity:1;stroke:none;"
     clip-path="url(#clipEmfPath2)"
     d="  M 97.806106,179.85559   L 97.806106,179.85559   C 94.805919,179.85559 93.105813,182.65646 93.105813,185.55735   C 93.105813,188.65831 94.805919,191.15908 97.806106,191.15908   C 100.80629,191.15908 102.5064,188.65831 102.5064,185.55735   C 102.5064,182.65646 100.80629,179.85559 97.806106,179.85559   z  M 97.806106,188.85837   L 97.806106,188.85837   C 96.506025,188.85837 96.406019,186.85775 96.406019,185.55735   C 96.406019,184.25695 96.506025,182.05627 97.806106,182.05627   C 99.006181,182.05627 99.206193,184.25695 99.206193,185.55735   C 99.206193,186.85775 99.106187,188.85837 97.806106,188.85837   z  M 98.806168,201.86239   L 98.806168,201.86239   L 113.50709,179.05534   L 110.60691,179.05534   L 95.805981,201.86239   L 98.806168,201.86239   z  M 111.70697,189.55859   L 111.70697,189.55859   C 108.80679,189.55859 107.10669,192.35945 107.10669,195.26035   C 107.10669,198.36131 108.80679,200.96211 111.70697,200.96211   C 114.70716,200.96211 116.50727,198.36131 116.50727,195.26035   C 116.50727,192.35945 114.70716,189.55859 111.70697,189.55859   z  M 111.70697,198.6614   L 111.70697,198.6614   C 110.5069,198.6614 110.30689,196.56075 110.30689,195.26035   C 110.30689,193.95995 110.5069,191.75927 111.70697,191.75927   C 113.00705,191.75927 113.20707,193.95995 113.20707,195.26035   C 113.20707,196.56075 113.00705,198.6614 111.70697,198.6614   z "
     id="path42" />
  <path
     style="fill:none;stroke:#000000;stroke-width:5.3003311px;stroke-linecap:round;stroke-linejoin:miter;stroke-miterlimit:8;stroke-dasharray:none;stroke-opacity:1;"
     clip-path="url(#clipEmfPath2)"
     d="  M 66.604158,139.64316   L 66.604158,139.64316   L 162.11012,62.219231  "
     id="path44" />
  <path
     style="fill:none;stroke:#000000;stroke-width:2.100131px;stroke-linecap:butt;stroke-linejoin:miter;stroke-miterlimit:8;stroke-dasharray:none;stroke-opacity:1;"
     clip-path="url(#clipEmfPath3)"
     d="  M 217.41357,48.715057   L 217.41357,48.715057   L 316.21974,48.715057   L 316.21974,168.15197   L 217.41357,168.15197   L 217.41357,48.715057   z "
     id="path46" />
  <path
     style="fill:#d6dce5;fill-rule:nonzero;fill-opacity:1;stroke:none;"
     clip-path="url(#clipEmfPath3)"
     d="  M 178.41114,48.715057   L 178.41114,48.715057   L 216.41351,48.715057   L 216.41351,168.15197   L 178.41114,168.15197   L 178.41114,48.715057   z "
     id="path48" />
  <path
     style="fill:none;stroke:#000000;stroke-width:2.100131px;stroke-linecap:butt;stroke-linejoin:miter;stroke-miterlimit:8;stroke-dasharray:none;stroke-opacity:1;"
     clip-path="url(#clipEmfPath3)"
     d="  M 178.41114,48.715057   L 178.41114,48.715057   L 216.41351,48.715057   L 216.41351,168.15197   L 178.41114,168.15197   L 178.41114,48.715057   z "
     id="path50" />
  <path
     style="fill:#0d0d0d;fill-rule:nonzero;fill-opacity:1;stroke:none;"
     clip-path="url(#clipEmfPath3)"
     d="  M 228.31425,201.86239   L 228.31425,201.86239   L 241.51508,201.86239   L 241.51508,198.06122   L 233.11455,198.06122   L 233.11455,179.85559   L 228.31425,179.85559   L 228.31425,201.86239   z "
     id="path52" />
  <path
     style="fill:#0d0d0d;fill-rule:nonzero;fill-opacity:1;stroke:none;"
     clip-path="url(#clipEmfPath3)"
     d="  M 248.3155,180.65584   L 248.3155,180.65584   C 245.41532,180.65584 243.61521,183.4567 243.61521,186.3576   C 243.61521,189.45856 245.31531,192.05936 248.3155,192.05936   C 251.31569,192.05936 253.1158,189.45856 253.1158,186.3576   C 253.1158,183.4567 251.31569,180.65584 248.3155,180.65584   z  M 248.3155,189.75865   L 248.3155,189.75865   C 247.11543,189.75865 246.91541,187.658 246.91541,186.3576   C 246.91541,185.0572 247.11543,182.85652 248.3155,182.85652   C 249.61558,182.85652 249.8156,185.0572 249.8156,186.3576   C 249.8156,187.658 249.61558,189.75865 248.3155,189.75865   z  M 249.41557,202.76267   L 249.41557,202.76267   L 264.21649,179.85559   L 261.31631,179.85559   L 246.41538,202.76267   L 249.41557,202.76267   z  M 262.41638,190.35884   L 262.41638,190.35884   C 259.4162,190.35884 257.71609,193.25973 257.71609,196.16063   C 257.71609,199.26159 259.4162,201.86239 262.41638,201.86239   C 265.41657,201.86239 267.11668,199.26159 267.11668,196.16063   C 267.11668,193.25973 265.41657,190.35884 262.41638,190.35884   z  M 262.41638,199.56168   L 262.41638,199.56168   C 261.1163,199.56168 261.0163,197.46103 261.0163,196.16063   C 261.0163,194.86023 261.21631,192.65955 262.41638,192.65955   C 263.71646,192.65955 263.91648,194.86023 263.91648,196.16063   C 263.91648,197.46103 263.71646,199.56168 262.41638,199.56168   z "
     id="path54" />
  <path
     style="fill:none;stroke:#000000;stroke-width:5.4003372px;stroke-linecap:round;stroke-linejoin:miter;stroke-miterlimit:8;stroke-dasharray:none;stroke-opacity:1;"
     clip-path="url(#clipEmfPath3)"
     d="  M 219.11368,128.53973   L 219.11368,128.53973   L 314.11961,145.34492  "
     id="path56" />
  <path
     style="fill:none;stroke:#000000;stroke-width:2.100131px;stroke-linecap:butt;stroke-linejoin:miter;stroke-miterlimit:8;stroke-dasharray:none;stroke-opacity:1;"
     clip-path="url(#clipEmfPath4)"
     d="  M 371.92322,48.715057   L 371.92322,48.715057   L 471.42943,48.715057   L 471.42943,167.45176   L 371.92322,167.45176   L 371.92322,48.715057   z "
     id="path58" />
  <path
     style="fill:#d6dce5;fill-rule:nonzero;fill-opacity:1;stroke:none;"
     clip-path="url(#clipEmfPath4)"
     d="  M 333.02079,48.715057   L 333.02079,48.715057   L 371.92322,48.715057   L 371.92322,167.45176   L 333.02079,167.45176   L 333.02079,48.715057   z "
     id="path60" />
  <path
     style="fill:none;stroke:#000000;stroke-width:2.100131px;stroke-linecap:butt;stroke-linejoin:miter;stroke-miterlimit:8;stroke-dasharray:none;stroke-opacity:1;"
     clip-path="url(#clipEmfPath4)"
     d="  M 333.02079,48.715057   L 333.02079,48.715057   L 371.92322,48.715057   L 371.92322,167.45176   L 333.02079,167.45176   L 333.02079,48.715057   z "
     id="path62" />
  <path
     style="fill:#0d0d0d;fill-rule:nonzero;fill-opacity:1;stroke:none;"
     clip-path="url(#clipEmfPath4)"
     d="  M 375.22343,198.46134   L 375.22343,198.46134   C 375.22343,199.9618 376.32349,200.96211 377.62357,200.96211   C 379.02366,200.96211 380.12373,199.9618 380.12373,198.46134   C 380.12373,197.06091 379.02366,196.0606 377.62357,196.0606   C 376.32349,196.0606 375.22343,197.06091 375.22343,198.46134   z  M 380.02372,179.05534   L 380.02372,179.05534   L 375.42344,179.05534   L 376.02348,194.16001   L 379.42369,194.16001   L 380.02372,179.05534   z "
     id="path64" />
  <path
     style="fill:#0d0d0d;fill-rule:nonzero;fill-opacity:1;stroke:none;"
     clip-path="url(#clipEmfPath4)"
     d="  M 385.82409,179.05534   L 385.82409,179.05534   L 385.82409,200.96211   L 390.52438,200.96211   L 390.52438,191.35915   L 399.22492,191.35915   L 399.22492,200.96211   L 403.92522,200.96211   L 403.92522,179.05534   L 399.22492,179.05534   L 399.22492,187.75803   L 390.52438,187.75803   L 390.52438,179.05534   L 385.82409,179.05534   z "
     id="path66" />
  <path
     style="fill:#0d0d0d;fill-rule:nonzero;fill-opacity:1;stroke:none;"
     clip-path="url(#clipEmfPath4)"
     d="  M 412.42575,179.85559   L 412.42575,179.85559   C 409.52557,179.85559 407.72545,182.65646 407.72545,185.55735   C 407.72545,188.65831 409.42556,191.15908 412.42575,191.15908   C 415.42593,191.15908 417.12604,188.65831 417.12604,185.55735   C 417.12604,182.65646 415.42593,179.85559 412.42575,179.85559   z  M 412.42575,188.85837   L 412.42575,188.85837   C 411.22567,188.85837 411.02566,186.85775 411.02566,185.55735   C 411.02566,184.25695 411.22567,182.05627 412.42575,182.05627   C 413.72583,182.05627 413.92584,184.25695 413.92584,185.55735   C 413.92584,186.85775 413.72583,188.85837 412.42575,188.85837   z  M 413.52582,201.86239   L 413.52582,201.86239   L 428.22673,179.05534   L 425.32655,179.05534   L 410.52563,201.86239   L 413.52582,201.86239   z  M 426.42662,189.55859   L 426.42662,189.55859   C 423.52644,189.55859 421.72633,192.35945 421.72633,195.26035   C 421.72633,198.36131 423.42643,200.96211 426.42662,200.96211   C 429.42681,200.96211 431.12692,198.36131 431.12692,195.26035   C 431.12692,192.35945 429.42681,189.55859 426.42662,189.55859   z  M 426.42662,198.6614   L 426.42662,198.6614   C 425.22655,198.6614 425.02653,196.56075 425.02653,195.26035   C 425.02653,193.95995 425.22655,191.75927 426.42662,191.75927   C 427.7267,191.75927 427.92672,193.95995 427.92672,195.26035   C 427.92672,196.56075 427.7267,198.6614 426.42662,198.6614   z "
     id="path68" />
  <path
     style="fill:none;stroke:#000000;stroke-width:5.4003372px;stroke-linecap:round;stroke-linejoin:miter;stroke-miterlimit:8;stroke-dasharray:none;stroke-opacity:1;"
     clip-path="url(#clipEmfPath4)"
     d="  M 373.62333,139.54313   L 373.62333,139.54313   L 471.12941,108.63358  "
     id="path70" />
  <path
     style="fill:#000000;fill-rule:nonzero;fill-opacity:1;stroke:none;"
     clip-path="url(#clipEmfPath4)"
     d="  M 376.52351,65.020097   L 376.52351,65.020097   L 376.52351,65.020097   C 377.92359,65.42022 378.72364,66.920684 378.32362,68.321117   C 377.92359,69.72155 376.4235,70.621828 375.02341,70.121673   L 375.02341,70.121673   C 373.52332,69.72155 372.72327,68.221086 373.12329,66.820653   C 373.62333,65.42022 375.12342,64.519942 376.52351,65.020097   L 376.52351,65.020097   z  M 386.92416,68.021024   L 386.92416,68.021024   L 386.92416,68.021024   C 388.32424,68.421148 389.12429,69.921612 388.72427,71.422075   C 388.32424,72.822508 386.82415,73.622755 385.32406,73.222632   L 385.32406,73.222632   C 383.92397,72.822508 383.12392,71.322044 383.52394,69.821581   C 383.92397,68.421148 385.42406,67.6209 386.92416,68.021024   L 386.92416,68.021024   z  M 397.2248,71.021952   L 397.2248,71.021952   L 397.2248,71.121983   C 398.72489,71.522106 399.52494,73.02257 399.12492,74.423003   C 398.72489,75.823436 397.12479,76.623683 395.7247,76.223559   L 395.7247,76.223559   C 394.32462,75.823436 393.52457,74.322972 393.92459,72.922539   C 394.32462,71.422075 395.82471,70.621828 397.2248,71.021952   L 397.2248,71.021952   z  M 407.62545,74.12291   L 407.62545,74.12291   L 407.62545,74.12291   C 409.02554,74.523034 409.92559,76.023497 409.42556,77.42393   C 409.02554,78.924394 407.52544,79.724641 406.12535,79.324518   L 406.12535,79.324518   C 404.72527,78.924394 403.82521,77.42393 404.32524,75.923467   C 404.72527,74.523034 406.22536,73.722786 407.62545,74.12291   L 407.62545,74.12291   z  M 418.0261,77.123838   L 418.0261,77.123838   L 418.0261,77.123838   C 419.42618,77.623992 420.22623,79.124456 419.82621,80.524889   C 419.42618,81.925322 417.92609,82.725569 416.526,82.325445   L 416.526,82.325445   C 415.02591,81.925322 414.22586,80.424858 414.62588,79.024425   C 415.12592,77.523961 416.62601,76.723714 418.0261,77.123838   L 418.0261,77.123838   z  M 428.42675,80.224796   L 428.42675,80.224796   L 428.42675,80.224796   C 429.82683,80.62492 430.62688,82.125383 430.22686,83.525816   C 429.82683,85.02628 428.32674,85.826527 426.82665,85.426404   L 426.82665,85.426404   C 425.42656,84.926249 424.62651,83.425785 425.02653,82.025353   C 425.42656,80.62492 426.92665,79.824672 428.42675,80.224796   L 428.42675,80.224796   z  M 438.72739,83.225724   L 438.72739,83.225724   L 438.72739,83.225724   C 440.22748,83.625847 441.02753,85.126311 440.62751,86.626775   C 440.22748,88.027208 438.72739,88.827455 437.2273,88.427331   L 437.2273,88.427331   C 435.82721,88.027208 435.02716,86.526744 435.42718,85.126311   C 435.82721,83.625847 437.3273,82.8256 438.72739,83.225724   L 438.72739,83.225724   z  M 449.12804,86.326682   L 449.12804,86.326682   L 449.12804,86.326682   C 450.52813,86.726806 451.42818,88.227269 450.92815,89.627702   C 450.52813,91.028135 449.02803,91.928413 447.62795,91.428259   L 447.62795,91.428259   C 446.22786,91.028135 445.3278,89.527671 445.82783,88.127239   C 446.22786,86.726806 447.72795,85.826527 449.12804,86.326682   L 449.12804,86.326682   z  M 459.52869,89.32761   L 459.52869,89.32761   L 459.52869,89.32761   C 460.92878,89.727733 461.72883,91.228197 461.3288,92.728661   C 460.92878,94.129094 459.42868,94.929341 458.02859,94.529217   L 458.02859,94.529217   C 456.5285,94.129094 455.72845,92.62863 456.12848,91.128166   C 456.62851,89.727733 458.1286,88.927486 459.52869,89.32761   L 459.52869,89.32761   z "
     id="path72" />
  <path
     style="fill:none;stroke:#000000;stroke-width:5.40034px;stroke-linecap:round;stroke-linejoin:miter;stroke-miterlimit:8;stroke-dasharray:none;stroke-opacity:1"
     clip-path="url(#clipEmfPath5-9)"
     d="m 529.73307,138.94294 v 0 l 44.20276,-58.217989"
     id="path74"
     transform="translate(-465.99697,170.6787)" />
  <path
     style="fill:none;stroke:#000000;stroke-width:2.10013px;stroke-linecap:butt;stroke-linejoin:miter;stroke-miterlimit:8;stroke-dasharray:none;stroke-opacity:1"
     clip-path="url(#clipEmfPath5-9)"
     d="m 529.13303,48.715057 v 0 h 99.10619 V 168.15197 h -99.10619 z"
     id="path76"
     transform="translate(-465.99697,170.6787)" />
  <path
     style="fill:#d6dce5;fill-opacity:1;fill-rule:nonzero;stroke:none"
     clip-path="url(#clipEmfPath5-9)"
     d="m 490.43062,48.715057 v 0 h 38.70241 V 168.15197 h -38.70241 z"
     id="path78"
     transform="translate(-465.99697,170.6787)" />
  <path
     style="fill:none;stroke:#000000;stroke-width:2.10013px;stroke-linecap:butt;stroke-linejoin:miter;stroke-miterlimit:8;stroke-dasharray:none;stroke-opacity:1"
     clip-path="url(#clipEmfPath5-9)"
     d="m 490.43062,48.715057 v 0 h 38.70241 V 168.15197 h -38.70241 z"
     id="path80"
     transform="translate(-465.99697,170.6787)" />
  <path
     style="fill:#0d0d0d;fill-opacity:1;fill-rule:nonzero;stroke:none"
     clip-path="url(#clipEmfPath5-9)"
     d="m 529.13303,179.85559 v 0 22.0068 h 4.60029 v -9.703 h 8.70054 v 9.703 h 4.7003 v -22.0068 h -4.7003 v 8.80272 h -8.70054 v -8.80272 z"
     id="path82"
     transform="translate(-465.99697,170.6787)" />
  <path
     style="fill:#0d0d0d;fill-opacity:1;fill-rule:nonzero;stroke:none"
     clip-path="url(#clipEmfPath5-9)"
     d="m 551.73444,201.86239 v 0 h 13.10082 v -3.80117 h -8.30052 v -18.20563 h -4.8003 z"
     id="path84"
     transform="translate(-465.99697,170.6787)" />
  <path
     style="fill:#0d0d0d;fill-opacity:1;fill-rule:nonzero;stroke:none"
     clip-path="url(#clipEmfPath5-9)"
     d="m 571.63569,180.65584 v 0 c -3.00019,0 -4.7003,2.80086 -4.7003,5.70176 0,3.10096 1.70011,5.70176 4.7003,5.70176 3.00018,0 4.70029,-2.6008 4.70029,-5.70176 0,-2.9009 -1.70011,-5.70176 -4.70029,-5.70176 z m 0,9.10281 v 0 c -1.30008,0 -1.40009,-2.10065 -1.40009,-3.40105 0,-1.3004 0.20001,-3.50108 1.40009,-3.50108 1.30008,0 1.40008,2.20068 1.40008,3.50108 0,1.3004 -0.1,3.40105 -1.40008,3.40105 z m 1.00006,13.00402 v 0 l 14.70092,-22.90708 h -2.90018 l -14.80093,22.90708 z m 13.00081,-12.40383 v 0 c -3.00019,0 -4.70029,2.90089 -4.70029,5.80179 0,3.10096 1.7001,5.70176 4.70029,5.70176 2.90018,0 4.70029,-2.6008 4.70029,-5.70176 0,-2.9009 -1.80011,-5.80179 -4.70029,-5.80179 z m 0,9.20284 v 0 c -1.30008,0 -1.50009,-2.10065 -1.50009,-3.40105 0,-1.3004 0.20001,-3.50108 1.50009,-3.50108 1.20008,0 1.40009,2.20068 1.40009,3.50108 0,1.3004 -0.10001,3.40105 -1.40009,3.40105 z"
     id="path86"
     transform="translate(-465.99697,170.6787)" />
  <path
     style="fill:none;stroke:#000000;stroke-width:5.40034px;stroke-linecap:round;stroke-linejoin:miter;stroke-miterlimit:8;stroke-dasharray:none;stroke-opacity:1"
     clip-path="url(#clipEmfPath5-9)"
     d="m 573.83582,80.724951 v 0 l 51.90324,58.217989"
     id="path88"
     transform="translate(-465.99697,170.6787)" />
  <path
     style="fill:#000000;fill-opacity:1;fill-rule:nonzero;stroke:none"
     clip-path="url(#clipEmfPath5-9)"
     d="m 531.8332,81.72526 v 0 h 0.10001 c 1.40009,0 2.60016,-1.300402 2.60016,-2.800866 0,-1.500464 -1.20007,-2.700835 -2.70017,-2.700835 v 0 c -1.50009,0 -2.70017,1.300402 -2.70017,2.800866 0,1.500464 1.30008,2.700835 2.70017,2.700835 z m 10.80068,-0.100031 v 0 0 c 1.50009,-0.100031 2.70017,-1.300402 2.70017,-2.800866 0,-1.500464 -1.20008,-2.700835 -2.70017,-2.700835 v 0 c -1.5001,0 -2.70017,1.300402 -2.70017,2.800866 0,1.500464 1.20007,2.700835 2.70017,2.700835 z m 10.80067,-0.100031 v 0 0 c 1.50009,-0.100031 2.70017,-1.300402 2.70017,-2.800866 0,-1.500463 -1.30008,-2.700835 -2.70017,-2.700835 h -0.10001 c -1.40008,0 -2.60016,1.300402 -2.60016,2.800866 0,1.500464 1.20008,2.700835 2.70017,2.700835 z m 10.80068,-0.100031 v 0 0 c 1.50009,-0.100031 2.70016,-1.300402 2.60016,-2.800866 0,-1.500463 -1.20008,-2.700834 -2.70017,-2.700834 v 0 c -1.50009,0 -2.70017,1.300402 -2.60016,2.800865 0,1.500464 1.20007,2.700835 2.70017,2.700835 z m 10.70066,-0.100031 v 0 0 c 1.5001,-0.100031 2.70017,-1.300402 2.70017,-2.800866 0,-1.500463 -1.20007,-2.700834 -2.70017,-2.700834 v 0 c -1.50009,0 -2.70017,1.300402 -2.70017,2.800865 0,1.500464 1.30009,2.700835 2.70017,2.700835 z"
     id="path90"
     transform="translate(-465.99697,170.6787)" />
  <path
     style="fill:none;stroke:#000000;stroke-width:2.10013px;stroke-linecap:butt;stroke-linejoin:miter;stroke-miterlimit:8;stroke-dasharray:none;stroke-opacity:1"
     clip-path="url(#clipEmfPath6-8)"
     d="m 1161.2725,48.715057 v 0 h 99.3062 V 167.45176 h -99.3062 z"
     id="path92"
     transform="translate(-465.99697,170.6787)" />
  <path
     style="fill:#d6dce5;fill-opacity:1;fill-rule:nonzero;stroke:none"
     clip-path="url(#clipEmfPath6-8)"
     d="m 1122.4701,48.715057 v 0 h 38.8024 V 167.45176 h -38.8024 z"
     id="path94"
     transform="translate(-465.99697,170.6787)" />
  <path
     style="fill:none;stroke:#000000;stroke-width:2.10013px;stroke-linecap:butt;stroke-linejoin:miter;stroke-miterlimit:8;stroke-dasharray:none;stroke-opacity:1"
     clip-path="url(#clipEmfPath6-8)"
     d="m 1122.4701,48.715057 v 0 h 38.8024 V 167.45176 h -38.8024 z"
     id="path96"
     transform="translate(-465.99697,170.6787)" />
  <path
     style="fill:#0d0d0d;fill-opacity:1;fill-rule:nonzero;stroke:none"
     clip-path="url(#clipEmfPath6-8)"
     d="m 1153.272,200.96211 v 0 h 13.1008 v -3.80117 h -8.3005 v -18.1056 h -4.8003 z"
     id="path98"
     transform="translate(-465.99697,170.6787)" />
  <path
     style="fill:#0d0d0d;fill-opacity:1;fill-rule:nonzero;stroke:none"
     clip-path="url(#clipEmfPath6-8)"
     d="m 1169.073,179.05534 v 0 21.90677 h 4.7003 v -9.60296 h 8.6005 v 9.60296 h 4.8003 v -21.90677 h -4.8003 v 8.70269 h -8.6005 v -8.70269 z"
     id="path100"
     transform="translate(-465.99697,170.6787)" />
  <path
     style="fill:#0d0d0d;fill-opacity:1;fill-rule:nonzero;stroke:none"
     clip-path="url(#clipEmfPath6-8)"
     d="m 1191.7744,200.96211 v 0 h 13.0008 v -3.80117 h -8.3005 v -18.1056 h -4.7003 z"
     id="path102"
     transform="translate(-465.99697,170.6787)" />
  <path
     style="fill:#0d0d0d;fill-opacity:1;fill-rule:nonzero;stroke:none"
     clip-path="url(#clipEmfPath6-8)"
     d="m 1211.6756,179.85559 v 0 c -3.0001,0 -4.7002,2.80087 -4.7002,5.70176 0,3.10096 1.7001,5.60173 4.7002,5.60173 3.0002,0 4.7003,-2.50077 4.7003,-5.60173 0,-2.90089 -1.7001,-5.70176 -4.7003,-5.70176 z m 0,9.00278 v 0 c -1.3,0 -1.4,-2.00062 -1.4,-3.30102 0,-1.3004 0.1,-3.50108 1.4,-3.50108 1.3001,0 1.4001,2.20068 1.4001,3.50108 0,1.3004 -0.1,3.30102 -1.4001,3.30102 z m 1.0001,13.00402 v 0 l 14.7009,-22.80705 h -2.9002 l -14.8009,22.80705 z m 13.0008,-12.3038 v 0 c -3.0002,0 -4.7003,2.80086 -4.7003,5.70176 0,3.10096 1.7001,5.70176 4.7003,5.70176 2.9002,0 4.7003,-2.6008 4.7003,-5.70176 0,-2.9009 -1.8001,-5.70176 -4.7003,-5.70176 z m 0,9.10281 v 0 c -1.3001,0 -1.5001,-2.10065 -1.5001,-3.40105 0,-1.3004 0.2,-3.50108 1.5001,-3.50108 1.2001,0 1.4001,2.20068 1.4001,3.50108 0,1.3004 -0.1,3.40105 -1.4001,3.40105 z"
     id="path104"
     transform="translate(-465.99697,170.6787)" />
  <path
     style="fill:none;stroke:#000000;stroke-width:5.30033px;stroke-linecap:round;stroke-linejoin:miter;stroke-miterlimit:8;stroke-dasharray:none;stroke-opacity:1"
     clip-path="url(#clipEmfPath6-8)"
     d="m 1161.7725,108.63358 v 0 l 31.602,25.80797"
     id="path106"
     transform="translate(-465.99697,170.6787)" />
  <path
     style="fill:none;stroke:#000000;stroke-width:5.30033px;stroke-linecap:round;stroke-linejoin:miter;stroke-miterlimit:8;stroke-dasharray:none;stroke-opacity:1"
     clip-path="url(#clipEmfPath6-8)"
     d="m 1227.6766,98.930578 v 0 l 31.302,35.010822"
     id="path108"
     transform="translate(-465.99697,170.6787)" />
  <path
     style="fill:none;stroke:#000000;stroke-width:5.30033px;stroke-linecap:round;stroke-linejoin:miter;stroke-miterlimit:8;stroke-dasharray:none;stroke-opacity:1"
     clip-path="url(#clipEmfPath6-8)"
     d="m 1193.0745,135.44186 v 0 l 34.6021,-36.511282"
     id="path110"
     transform="translate(-465.99697,170.6787)" />
  <path
     style="fill:none;stroke:#000000;stroke-width:5.40034px;stroke-linecap:round;stroke-linejoin:miter;stroke-miterlimit:8;stroke-dasharray:none;stroke-opacity:1"
     clip-path="url(#clipEmfPath7-2)"
     d="m 686.24284,138.94294 v 0 l 44.8028,-58.217989"
     id="path112"
     transform="translate(-465.99697,170.6787)" />
  <path
     style="fill:none;stroke:#000000;stroke-width:2.10013px;stroke-linecap:butt;stroke-linejoin:miter;stroke-miterlimit:8;stroke-dasharray:none;stroke-opacity:1"
     clip-path="url(#clipEmfPath7-2)"
     d="m 685.6428,48.715057 v 0 H 786.04907 V 168.15197 H 685.6428 Z"
     id="path114"
     transform="translate(-465.99697,170.6787)" />
  <path
     style="fill:#d6dce5;fill-opacity:1;fill-rule:nonzero;stroke:none"
     clip-path="url(#clipEmfPath7-2)"
     d="m 646.44036,48.715057 v 0 H 685.6428 V 168.15197 h -39.20244 z"
     id="path116"
     transform="translate(-465.99697,170.6787)" />
  <path
     style="fill:none;stroke:#000000;stroke-width:2.10013px;stroke-linecap:butt;stroke-linejoin:miter;stroke-miterlimit:8;stroke-dasharray:none;stroke-opacity:1"
     clip-path="url(#clipEmfPath7-2)"
     d="m 646.44036,48.715057 v 0 H 685.6428 V 168.15197 h -39.20244 z"
     id="path118"
     transform="translate(-465.99697,170.6787)" />
  <path
     style="fill:#0d0d0d;fill-opacity:1;fill-rule:nonzero;stroke:none"
     clip-path="url(#clipEmfPath7-2)"
     d="m 675.9422,179.85559 v 0 22.0068 h 4.8003 v -9.703 h 8.70054 v 9.703 h 4.8003 v -22.0068 h -4.8003 v 8.80272 h -8.70054 v -8.80272 z"
     id="path120"
     transform="translate(-465.99697,170.6787)" />
  <path
     style="fill:#0d0d0d;fill-opacity:1;fill-rule:nonzero;stroke:none"
     clip-path="url(#clipEmfPath7-2)"
     d="m 700.14371,199.36162 v 0 c 0,1.50046 1.10007,2.50077 2.50016,2.50077 1.40008,0 2.50015,-1.00031 2.50015,-2.50077 0,-1.40043 -1.10007,-2.40074 -2.50015,-2.40074 -1.40009,0 -2.50016,1.00031 -2.50016,2.40074 z m 4.8003,-19.50603 v 0 h -4.60029 l 0.60004,15.2047 h 3.40021 z"
     id="path122"
     transform="translate(-465.99697,170.6787)" />
  <path
     style="fill:#0d0d0d;fill-opacity:1;fill-rule:nonzero;stroke:none"
     clip-path="url(#clipEmfPath7-2)"
     d="m 710.94438,179.85559 v 0 22.0068 h 4.7003 v -9.703 h 8.80055 v 9.703 h 4.8003 v -22.0068 h -4.8003 v 8.80272 h -8.80055 v -8.80272 z"
     id="path124"
     transform="translate(-465.99697,170.6787)" />
  <path
     style="fill:#0d0d0d;fill-opacity:1;fill-rule:nonzero;stroke:none"
     clip-path="url(#clipEmfPath7-2)"
     d="m 737.74606,180.65584 v 0 c -3.00019,0 -4.7003,2.80086 -4.7003,5.70176 0,3.10096 1.70011,5.70176 4.7003,5.70176 3.00018,0 4.8003,-2.6008 4.8003,-5.70176 0,-2.9009 -1.80012,-5.70176 -4.8003,-5.70176 z m 0,9.10281 v 0 c -1.30008,0 -1.40009,-2.10065 -1.40009,-3.40105 0,-1.3004 0.20001,-3.50108 1.40009,-3.50108 1.30008,0 1.50009,2.20068 1.50009,3.50108 0,1.3004 -0.20001,3.40105 -1.50009,3.40105 z m 1.10007,13.00402 v 0 l 14.80092,-22.90708 h -2.90018 l -15.00094,22.90708 z m 13.10081,-12.40383 v 0 c -3.00018,0 -4.8003,2.90089 -4.8003,5.80179 0,3.10096 1.70011,5.70176 4.8003,5.70176 3.00019,0 4.7003,-2.6008 4.7003,-5.70176 0,-2.9009 -1.70011,-5.80179 -4.7003,-5.80179 z m 0,9.20284 v 0 c -1.30008,0 -1.50009,-2.10065 -1.50009,-3.40105 0,-1.3004 0.20001,-3.50108 1.50009,-3.50108 1.20008,0 1.40009,2.20068 1.40009,3.50108 0,1.3004 -0.1,3.40105 -1.40009,3.40105 z"
     id="path126"
     transform="translate(-465.99697,170.6787)" />
  <path
     style="fill:none;stroke:#000000;stroke-width:5.40034px;stroke-linecap:round;stroke-linejoin:miter;stroke-miterlimit:8;stroke-dasharray:none;stroke-opacity:1"
     clip-path="url(#clipEmfPath7-2)"
     d="m 729.84556,79.624611 v 0 l 56.0035,17.905534"
     id="path128"
     transform="translate(-465.99697,170.6787)" />
  <path
     style="fill:#000000;fill-opacity:1;fill-rule:nonzero;stroke:none"
     clip-path="url(#clipEmfPath7-2)"
     d="m 688.44298,81.72526 v 0 0 c 1.50009,0 2.70017,-1.300402 2.70017,-2.800866 0,-1.500464 -1.20008,-2.700835 -2.70017,-2.700835 h -0.10001 c -1.50009,0 -2.70017,1.300402 -2.70017,2.800866 0.10001,1.500464 1.30009,2.700835 2.80018,2.700835 z m 10.90068,-0.100031 v 0 0 c 1.50009,-0.100031 2.70017,-1.300402 2.70017,-2.800866 0,-1.500464 -1.20008,-2.700835 -2.70017,-2.700835 v 0 c -1.50009,0 -2.80017,1.300402 -2.70017,2.800866 0,1.500464 1.20008,2.700835 2.70017,2.700835 z m 10.90068,-0.100031 v 0 0 c 1.50009,-0.100031 2.70017,-1.300402 2.70017,-2.800866 0,-1.500463 -1.20008,-2.700835 -2.70017,-2.700835 v 0 c -1.50009,0 -2.70017,1.300402 -2.70017,2.800866 0,1.500464 1.20008,2.700835 2.70017,2.700835 z m 10.90068,-0.100031 v 0 0 c 1.6001,-0.100031 2.80018,-1.300402 2.70017,-2.800866 0,-1.500463 -1.20008,-2.700834 -2.70017,-2.700834 v 0 c -1.50009,0 -2.70017,1.300402 -2.70017,2.800865 0,1.500464 1.20008,2.700835 2.70017,2.700835 z m 11.00069,-0.100031 v 0 0 c 1.50009,-0.100031 2.70017,-1.300402 2.70017,-2.800866 -0.10001,-1.500463 -1.30008,-2.700834 -2.80018,-2.700834 v 0 c -1.50009,0 -2.70017,1.300402 -2.70017,2.800865 0,1.500464 1.20008,2.700835 2.80018,2.700835 z"
     id="path130"
     transform="translate(-465.99697,170.6787)" />
  <path
     style="fill:none;stroke:#000000;stroke-width:2.10013px;stroke-linecap:butt;stroke-linejoin:miter;stroke-miterlimit:8;stroke-dasharray:none;stroke-opacity:1"
     clip-path="url(#clipEmfPath8-8)"
     d="m 1003.9627,48.715057 v 0 h 99.2062 V 167.45176 h -99.2062 z"
     id="path132"
     transform="translate(-465.99697,170.6787)" />
  <path
     style="fill:#d6dce5;fill-opacity:1;fill-rule:nonzero;stroke:none"
     clip-path="url(#clipEmfPath8-8)"
     d="m 965.06025,48.715057 v 0 h 38.90245 V 167.45176 h -38.90245 z"
     id="path134"
     transform="translate(-465.99697,170.6787)" />
  <path
     style="fill:none;stroke:#000000;stroke-width:2.10013px;stroke-linecap:butt;stroke-linejoin:miter;stroke-miterlimit:8;stroke-dasharray:none;stroke-opacity:1"
     clip-path="url(#clipEmfPath8-8)"
     d="m 965.06025,48.715057 v 0 h 38.90245 V 167.45176 h -38.90245 z"
     id="path136"
     transform="translate(-465.99697,170.6787)" />
  <path
     style="fill:#0d0d0d;fill-opacity:1;fill-rule:nonzero;stroke:none"
     clip-path="url(#clipEmfPath8-8)"
     d="m 1003.8627,200.96211 v 0 h 13.1008 v -3.80117 h -8.4005 v -18.1056 h -4.7003 z"
     id="path138"
     transform="translate(-465.99697,170.6787)" />
  <path
     style="fill:#0d0d0d;fill-opacity:1;fill-rule:nonzero;stroke:none"
     clip-path="url(#clipEmfPath8-8)"
     d="m 1019.6637,179.05534 v 0 21.90677 h 4.6002 v -9.60296 h 8.7006 v 9.60296 h 4.7003 v -21.90677 h -4.7003 v 8.70269 h -8.7006 v -8.70269 z"
     id="path140"
     transform="translate(-465.99697,170.6787)" />
  <path
     style="fill:#0d0d0d;fill-opacity:1;fill-rule:nonzero;stroke:none"
     clip-path="url(#clipEmfPath8-8)"
     d="m 1046.1653,179.85559 v 0 c -3.0002,0 -4.7003,2.80087 -4.7003,5.70176 0,3.10096 1.7001,5.60173 4.7003,5.60173 3.0002,0 4.7003,-2.50077 4.7003,-5.60173 0,-2.90089 -1.7001,-5.70176 -4.7003,-5.70176 z m 0,9.00278 v 0 c -1.3001,0 -1.4001,-2.00062 -1.4001,-3.30102 0,-1.3004 0.2,-3.50108 1.4001,-3.50108 1.3001,0 1.5001,2.20068 1.5001,3.50108 0,1.3004 -0.2,3.30102 -1.5001,3.30102 z m 1.0001,13.00402 v 0 l 14.7009,-22.80705 h -2.9002 l -14.8009,22.80705 z m 13.0008,-12.3038 v 0 c -3.0002,0 -4.7003,2.80086 -4.7003,5.70176 0,3.10096 1.7001,5.70176 4.7003,5.70176 3.0002,0 4.7003,-2.6008 4.7003,-5.70176 0,-2.9009 -1.7001,-5.70176 -4.7003,-5.70176 z m 0,9.10281 v 0 c -1.3001,0 -1.4001,-2.10065 -1.4001,-3.40105 0,-1.3004 0.1,-3.50108 1.4001,-3.50108 1.3001,0 1.4001,2.20068 1.4001,3.50108 0,1.3004 -0.1,3.40105 -1.4001,3.40105 z"
     id="path142"
     transform="translate(-465.99697,170.6787)" />
  <path
     style="fill:none;stroke:#000000;stroke-width:5.30033px;stroke-linecap:round;stroke-linejoin:miter;stroke-miterlimit:8;stroke-dasharray:none;stroke-opacity:1"
     clip-path="url(#clipEmfPath8-8)"
     d="m 1005.5628,139.94325 v 0 h 47.903"
     id="path144"
     transform="translate(-465.99697,170.6787)" />
  <path
     style="fill:none;stroke:#000000;stroke-width:5.30033px;stroke-linecap:round;stroke-linejoin:miter;stroke-miterlimit:8;stroke-dasharray:none;stroke-opacity:1"
     clip-path="url(#clipEmfPath8-8)"
     d="m 1054.0658,139.94325 v 0 l 47.603,-68.02102"
     id="path146"
     transform="translate(-465.99697,170.6787)" />
  <path
     style="fill:#000000;fill-opacity:1;fill-rule:nonzero;stroke:none"
     clip-path="url(#clipEmfPath8-8)"
     d="m 1007.6629,75.623374 v 0 0 c 0.9001,1.10034 0.8001,2.800866 -0.4,3.801175 -1.1001,0.900278 -2.8002,0.700216 -3.8003,-0.400124 v 0 c -0.9,-1.200371 -0.8,-2.900897 0.4001,-3.801175 1.1,-1.000309 2.8001,-0.800247 3.8002,0.400124 z m 6.8004,8.302566 v 0 0 c 1.0001,1.200371 0.8001,2.900897 -0.3,3.801175 -1.2001,0.900278 -2.9002,0.800247 -3.8002,-0.400124 v 0 c -1.0001,-1.10034 -0.8001,-2.800865 0.3,-3.801175 1.2001,-0.900278 2.9002,-0.800247 3.8002,0.400124 z m 6.9005,8.302566 v 0 0 c 0.9,1.200371 0.8,2.900897 -0.4001,3.801175 -1.1,1.000309 -2.8001,0.800247 -3.8002,-0.300093 v 0 c -0.9001,-1.200371 -0.8,-2.900896 0.4,-3.801175 1.1001,-1.000309 2.8002,-0.800247 3.8003,0.300093 z m 6.8004,8.402594 v 0 0 c 1.0001,1.10034 0.8,2.80087 -0.3,3.80118 -1.2001,0.90028 -2.9002,0.80025 -3.8003,-0.40013 v 0 c -1,-1.10034 -0.8,-2.80086 0.3001,-3.80117 1.2,-0.900279 2.9001,-0.800248 3.8002,0.40012 z m 6.9004,8.30257 v 0 0 c 0.9001,1.20037 0.8001,2.9009 -0.4,3.80117 -1.1001,1.00031 -2.8002,0.80025 -3.8002,-0.30009 v 0 c -0.9001,-1.20037 -0.8001,-2.9009 0.4,-3.80117 1.1001,-1.00031 2.8002,-0.80025 3.8002,0.30009 z m 6.8004,8.4026 v 0 0 c 1.0001,1.10034 0.8001,2.80086 -0.3,3.80117 -1.2001,0.90028 -2.9002,0.80025 -3.8002,-0.40012 v 0 c -1.0001,-1.10034 -0.8001,-2.80087 0.3,-3.80118 1.2001,-0.90028 2.9002,-0.80024 3.8002,0.40013 z m 6.9005,8.30256 v 0 0 c 0.9,1.20037 0.8,2.9009 -0.4001,3.80118 -1.1,1.00031 -2.8001,0.80024 -3.8002,-0.3001 v 0 c -0.9,-1.20037 -0.8,-2.90089 0.4,-3.80117 1.1001,-1.00031 2.8002,-0.80025 3.8003,0.30009 z m 6.8004,8.4026 v 0 0 c 1.0001,1.10034 0.8,2.80087 -0.3,3.80117 -1.2001,0.90028 -2.9002,0.80025 -3.8003,-0.40012 v 0 c -1,-1.20037 -0.8,-2.9009 0.3001,-3.80117 1.2,-0.90028 2.9001,-0.80025 3.8002,0.40012 z"
     id="path148"
     transform="translate(-465.99697,170.6787)" />
  <path
     style="fill:none;stroke:#000000;stroke-width:2.10013px;stroke-linecap:butt;stroke-linejoin:miter;stroke-miterlimit:8;stroke-dasharray:none;stroke-opacity:1"
     clip-path="url(#clipEmfPath9-9)"
     d="m 842.75261,48.715057 v 0 h 99.60622 V 167.45176 h -99.60622 z"
     id="path150"
     transform="translate(-465.99697,170.6787)" />
  <path
     style="fill:#d6dce5;fill-opacity:1;fill-rule:nonzero;stroke:none"
     clip-path="url(#clipEmfPath9-9)"
     d="m 803.75018,48.715057 v 0 h 39.00243 V 167.45176 h -39.00243 z"
     id="path152"
     transform="translate(-465.99697,170.6787)" />
  <path
     style="fill:none;stroke:#000000;stroke-width:2.10013px;stroke-linecap:butt;stroke-linejoin:miter;stroke-miterlimit:8;stroke-dasharray:none;stroke-opacity:1"
     clip-path="url(#clipEmfPath9-9)"
     d="m 803.75018,48.715057 v 0 h 39.00243 V 167.45176 h -39.00243 z"
     id="path154"
     transform="translate(-465.99697,170.6787)" />
  <path
     style="fill:#0d0d0d;fill-opacity:1;fill-rule:nonzero;stroke:none"
     clip-path="url(#clipEmfPath9-9)"
     d="m 836.85224,200.96211 v 0 h 13.10082 v -3.80117 h -8.40052 v -18.1056 h -4.7003 z"
     id="path156"
     transform="translate(-465.99697,170.6787)" />
  <path
     style="fill:#0d0d0d;fill-opacity:1;fill-rule:nonzero;stroke:none"
     clip-path="url(#clipEmfPath9-9)"
     d="m 854.15332,198.46134 v 0 c 0,1.50046 1.10007,2.50077 2.40015,2.50077 1.40009,0 2.50016,-1.00031 2.50016,-2.50077 0,-1.40043 -1.10007,-2.40074 -2.50016,-2.40074 -1.30008,0 -2.40015,1.00031 -2.40015,2.40074 z m 4.8003,-19.406 v 0 h -4.60028 l 0.60003,15.10467 h 3.30021 z"
     id="path158"
     transform="translate(-465.99697,170.6787)" />
  <path
     style="fill:#0d0d0d;fill-opacity:1;fill-rule:nonzero;stroke:none"
     clip-path="url(#clipEmfPath9-9)"
     d="m 864.75399,179.05534 v 0 21.90677 h 4.70029 v -9.60296 h 8.70054 v 9.60296 h 4.8003 v -21.90677 h -4.8003 v 8.70269 h -8.70054 v -8.70269 z"
     id="path160"
     transform="translate(-465.99697,170.6787)" />
  <path
     style="fill:#0d0d0d;fill-opacity:1;fill-rule:nonzero;stroke:none"
     clip-path="url(#clipEmfPath9-9)"
     d="m 891.45565,179.85559 v 0 c -3.00018,0 -4.70029,2.80087 -4.70029,5.70176 0,3.10096 1.70011,5.60173 4.70029,5.60173 3.00019,0 4.7003,-2.50077 4.7003,-5.60173 0,-2.90089 -1.70011,-5.70176 -4.7003,-5.70176 z m 0,9.00278 v 0 c -1.30008,0 -1.40008,-2.00062 -1.40008,-3.30102 0,-1.3004 0.1,-3.50108 1.40008,-3.50108 1.30008,0 1.40009,2.20068 1.40009,3.50108 0,1.3004 -0.10001,3.30102 -1.40009,3.30102 z m 1.00007,13.00402 v 0 l 14.80092,-22.80705 h -2.90018 l -14.90093,22.80705 z m 13.00081,-12.3038 v 0 c -3.00019,0 -4.7003,2.80086 -4.7003,5.70176 0,3.10096 1.70011,5.70176 4.7003,5.70176 3.00018,0 4.70029,-2.6008 4.70029,-5.70176 0,-2.9009 -1.70011,-5.70176 -4.70029,-5.70176 z m 0,9.10281 v 0 c -1.30008,0 -1.40009,-2.10065 -1.40009,-3.40105 0,-1.3004 0.20001,-3.50108 1.40009,-3.50108 1.30008,0 1.50009,2.20068 1.50009,3.50108 0,1.3004 -0.20001,3.40105 -1.50009,3.40105 z"
     id="path162"
     transform="translate(-465.99697,170.6787)" />
  <path
     style="fill:none;stroke:#000000;stroke-width:5.40034px;stroke-linecap:round;stroke-linejoin:miter;stroke-miterlimit:8;stroke-dasharray:none;stroke-opacity:1"
     clip-path="url(#clipEmfPath9-9)"
     d="m 845.45278,139.94325 v 0 h 48.003"
     id="path164"
     transform="translate(-465.99697,170.6787)" />
  <path
     style="fill:none;stroke:#000000;stroke-width:5.40034px;stroke-linecap:round;stroke-linejoin:miter;stroke-miterlimit:8;stroke-dasharray:none;stroke-opacity:1"
     clip-path="url(#clipEmfPath9-9)"
     d="m 895.25589,137.94264 v 0 l 48.003,-29.30906"
     id="path166"
     transform="translate(-465.99697,170.6787)" />
  <path
     style="fill:#000000;fill-opacity:1;fill-rule:nonzero;stroke:none"
     clip-path="url(#clipEmfPath9-9)"
     d="m 847.55291,77.724023 v 0 0 c 0.90006,1.200371 0.80005,2.900897 -0.40002,3.801175 -1.20008,1.000309 -2.90018,0.800247 -3.80024,-0.400124 v 0 c -1.00006,-1.10034 -0.80005,-2.800865 0.40003,-3.801175 1.10006,-0.900278 2.80017,-0.700216 3.80023,0.400124 z m 6.90043,8.402597 v 0 0 c 0.90006,1.10034 0.70005,2.800866 -0.40002,3.801175 -1.20008,0.900278 -2.90018,0.700216 -3.80024,-0.400124 v 0 c -1.00006,-1.200371 -0.80005,-2.900896 0.30002,-3.801174 1.20007,-1.00031 2.90018,-0.800248 3.90024,0.400123 z m 6.80043,8.302566 v 0 0 c 1.00006,1.200371 0.80005,2.900897 -0.30002,3.801175 -1.20008,1.000309 -2.90018,0.800248 -3.90024,-0.400123 v 0 c -0.90006,-1.100341 -0.70005,-2.800866 0.40002,-3.801175 1.20008,-0.900279 2.90018,-0.700217 3.80024,0.400123 z m 6.90043,8.302564 v 0 0.10003 c 1.00006,1.10034 0.80005,2.80087 -0.40003,3.80118 -1.10007,0.90028 -2.80017,0.70021 -3.80023,-0.40013 v 0 c -0.90006,-1.20037 -0.80005,-2.90089 0.40002,-3.80117 1.10007,-1.00031 2.90018,-0.80025 3.80024,0.30009 z m 6.90043,8.4026 v 0 0 c 0.90006,1.10034 0.80005,2.9009 -0.40003,3.80117 -1.20007,0.90028 -2.90018,0.80025 -3.80023,-0.40012 v 0 c -1.00007,-1.10034 -0.80005,-2.80086 0.40002,-3.80117 1.10007,-0.90028 2.80018,-0.80025 3.80024,0.40012 z m 6.80042,8.30257 v 0 h 0.10001 c 0.90006,1.20037 0.70004,2.90089 -0.40002,3.80117 -1.20008,1.00031 -2.90019,0.80025 -3.80024,-0.30009 v 0 c -1.00006,-1.20037 -0.80005,-2.9009 0.30002,-3.80118 1.20007,-1.00031 2.90018,-0.80024 3.80023,0.3001 z m 6.90043,8.40259 v 0 0 c 1.00007,1.10034 0.80005,2.80087 -0.30001,3.80118 -1.20008,0.90028 -2.90019,0.80025 -3.90025,-0.40013 v 0 c -0.90005,-1.10034 -0.70004,-2.80086 0.40003,-3.80117 1.20007,-0.90028 2.90018,-0.80025 3.80023,0.40012 z m 6.90044,8.30257 v 0 0 c 1.00006,1.20037 0.80005,2.9009 -0.40003,3.80117 -1.10007,1.00031 -2.80017,0.80025 -3.80024,-0.30009 v 0 c -0.90005,-1.20037 -0.80005,-2.9009 0.40003,-3.80117 1.10007,-1.00031 2.80017,-0.80025 3.80024,0.30009 z"
     id="path168"
     transform="translate(-465.99697,170.6787)" />
</svg>
